<?xml version="1.0" encoding="UTF-8"?>
<svg height="128px" viewBox="0 0 128 128" width="128px" xmlns="http://www.w3.org/2000/svg">
    <path d="m 22.136719 8.246094 h 55.230469 c 3.390624 0 6.136718 3.566406 6.136718 7.964844 v 91.578124 c 0 4.398438 -2.746094 7.964844 -6.136718 7.964844 h -55.230469 c -3.390625 0 -6.136719 -3.566406 -6.136719 -7.964844 v -91.578124 c 0 -4.398438 2.746094 -7.964844 6.136719 -7.964844 z m 0 0" fill="#3584e4"/>
    <path d="m 30.136719 8.246094 h 55.230469 c 3.390624 0 6.136718 3.566406 6.136718 7.964844 v 91.578124 c 0 4.398438 -2.746094 7.964844 -6.136718 7.964844 h -55.230469 c -3.390625 0 -6.136719 -3.566406 -6.136719 -7.964844 v -91.578124 c 0 -4.398438 2.746094 -7.964844 6.136719 -7.964844 z m 0 0" fill="#62a0ea"/>
    <path d="m 38.382812 8.246094 h 55.234376 c 3.386718 0 6.136718 3.566406 6.136718 7.964844 v 91.578124 c 0 4.398438 -2.75 7.964844 -6.136718 7.964844 h -55.234376 c -3.386718 0 -6.136718 -3.566406 -6.136718 -7.964844 v -91.578124 c 0 -4.398438 2.75 -7.964844 6.136718 -7.964844 z m 0 0" fill="#99c1f1"/>
    <path d="m 46.136719 8.496094 h 55.230469 c 3.390624 0 6.136718 3.5625 6.136718 7.960937 v 91.578125 c 0 4.398438 -2.746094 7.964844 -6.136718 7.964844 h -55.230469 c -3.390625 0 -6.136719 -3.566406 -6.136719 -7.964844 v -91.578125 c 0 -4.398437 2.746094 -7.960937 6.136719 -7.960937 z m 0 0" fill="#ffffff"/>
    <path d="m 89.753906 62.246094 c 0 8.839844 -7.164062 16 -16 16 c -8.839844 0 -16 -7.160156 -16 -16 c 0 -8.835938 7.160156 -16 16 -16 c 8.835938 0 16 7.164062 16 16 z m 0 0" fill="#3584e4"/>
</svg>
