<?xml version="1.0" encoding="UTF-8"?>
<svg height="128px" viewBox="0 0 128 128" width="128px" xmlns="http://www.w3.org/2000/svg" xmlns:xlink="http://www.w3.org/1999/xlink">
    <clipPath id="a">
        <rect height="128" width="128"/>
    </clipPath>
    <clipPath id="b">
        <rect height="128" width="128"/>
    </clipPath>
    <filter id="c" height="100%" width="100%" x="0%" y="0%">
        <feColorMatrix in="SourceGraphic" type="matrix" values="0 0 0 0 1 0 0 0 0 1 0 0 0 0 1 0 0 0 1 0"/>
    </filter>
    <mask id="d">
        <g clip-path="url(#b)" filter="url(#c)">
            <g clip-path="url(#a)">
                <path d="m 22.136719 8.246094 h 55.230469 c 3.390624 0 6.136718 3.566406 6.136718 7.964844 v 91.578124 c 0 4.398438 -2.746094 7.964844 -6.136718 7.964844 h -55.230469 c -3.390625 0 -6.136719 -3.566406 -6.136719 -7.964844 v -91.578124 c 0 -4.398438 2.746094 -7.964844 6.136719 -7.964844 z m 0 0" fill="#3584e4"/>
                <path d="m 30.136719 8.246094 h 55.230469 c 3.390624 0 6.136718 3.566406 6.136718 7.964844 v 91.578124 c 0 4.398438 -2.746094 7.964844 -6.136718 7.964844 h -55.230469 c -3.390625 0 -6.136719 -3.566406 -6.136719 -7.964844 v -91.578124 c 0 -4.398438 2.746094 -7.964844 6.136719 -7.964844 z m 0 0" fill="#62a0ea"/>
                <path d="m 38.382812 8.246094 h 55.234376 c 3.386718 0 6.136718 3.566406 6.136718 7.964844 v 91.578124 c 0 4.398438 -2.75 7.964844 -6.136718 7.964844 h -55.234376 c -3.386718 0 -6.136718 -3.566406 -6.136718 -7.964844 v -91.578124 c 0 -4.398438 2.75 -7.964844 6.136718 -7.964844 z m 0 0" fill="#99c1f1"/>
                <path d="m 46.136719 8.496094 h 55.230469 c 3.390624 0 6.136718 3.5625 6.136718 7.960937 v 91.578125 c 0 4.398438 -2.746094 7.964844 -6.136718 7.964844 h -55.230469 c -3.390625 0 -6.136719 -3.566406 -6.136719 -7.964844 v -91.578125 c 0 -4.398437 2.746094 -7.960937 6.136719 -7.960937 z m 0 0" fill="#ffffff"/>
                <path d="m 89.753906 62.246094 c 0 8.839844 -7.164062 16 -16 16 c -8.839844 0 -16 -7.160156 -16 -16 c 0 -8.835938 7.160156 -16 16 -16 c 8.835938 0 16 7.164062 16 16 z m 0 0" fill="#3584e4"/>
            </g>
        </g>
    </mask>
    <mask id="e">
        <g filter="url(#c)">
            <rect fill-opacity="0.8" height="128" width="128"/>
        </g>
    </mask>
    <linearGradient id="f" gradientTransform="matrix(0 0.37 -0.98462 0 295.38501 -30.360001)" gradientUnits="userSpaceOnUse" x1="300" x2="428" y1="235" y2="235">
        <stop offset="0" stop-color="#f9f06b"/>
        <stop offset="1" stop-color="#f5c211"/>
    </linearGradient>
    <clipPath id="g">
        <rect height="128" width="128"/>
    </clipPath>
    <clipPath id="h">
        <rect height="128" width="128"/>
    </clipPath>
    <path d="m 22.136719 8.246094 h 55.230469 c 3.390624 0 6.136718 3.566406 6.136718 7.964844 v 91.578124 c 0 4.398438 -2.746094 7.964844 -6.136718 7.964844 h -55.230469 c -3.390625 0 -6.136719 -3.566406 -6.136719 -7.964844 v -91.578124 c 0 -4.398438 2.746094 -7.964844 6.136719 -7.964844 z m 0 0" fill="#3584e4"/>
    <path d="m 30.136719 8.246094 h 55.230469 c 3.390624 0 6.136718 3.566406 6.136718 7.964844 v 91.578124 c 0 4.398438 -2.746094 7.964844 -6.136718 7.964844 h -55.230469 c -3.390625 0 -6.136719 -3.566406 -6.136719 -7.964844 v -91.578124 c 0 -4.398438 2.746094 -7.964844 6.136719 -7.964844 z m 0 0" fill="#62a0ea"/>
    <path d="m 38.382812 8.246094 h 55.234376 c 3.386718 0 6.136718 3.566406 6.136718 7.964844 v 91.578124 c 0 4.398438 -2.75 7.964844 -6.136718 7.964844 h -55.234376 c -3.386718 0 -6.136718 -3.566406 -6.136718 -7.964844 v -91.578124 c 0 -4.398438 2.75 -7.964844 6.136718 -7.964844 z m 0 0" fill="#99c1f1"/>
    <path d="m 46.136719 8.496094 h 55.230469 c 3.390624 0 6.136718 3.5625 6.136718 7.960937 v 91.578125 c 0 4.398438 -2.746094 7.964844 -6.136718 7.964844 h -55.230469 c -3.390625 0 -6.136719 -3.566406 -6.136719 -7.964844 v -91.578125 c 0 -4.398437 2.746094 -7.960937 6.136719 -7.960937 z m 0 0" fill="#ffffff"/>
    <path d="m 89.753906 62.246094 c 0 8.839844 -7.164062 16 -16 16 c -8.839844 0 -16 -7.160156 -16 -16 c 0 -8.835938 7.160156 -16 16 -16 c 8.835938 0 16 7.164062 16 16 z m 0 0" fill="#3584e4"/>
    <g clip-path="url(#h)" mask="url(#d)">
        <g clip-path="url(#g)" mask="url(#e)">
            <path d="m 128 80.640625 v 47.359375 h -128 v -47.359375 z m 0 0" fill="url(#f)"/>
            <path d="m 13.308594 80.640625 l 47.355468 47.359375 h 21.214844 l -47.359375 -47.359375 z m 42.421875 0 l 47.363281 47.359375 h 21.214844 l -47.363282 -47.359375 z m 42.429687 0 l 29.839844 29.839844 v -21.210938 l -8.628906 -8.628906 z m -98.160156 7.90625 v 21.214844 l 18.238281 18.238281 h 21.214844 z m 0 0"/>
        </g>
    </g>
</svg>
