<svg width="666" height="526" viewBox="0 0 666 526" fill="none" xmlns="http://www.w3.org/2000/svg">
<g filter="url(#filter0_d)">
<rect x="32" y="28" width="602" height="462" rx="7" fill="#F6F5F4"/>
<rect x="32.5" y="28.5" width="601" height="461" rx="6.5" stroke="black" stroke-opacity="0.35"/>
</g>
<g filter="url(#filter1_i)">
<path d="M33 35C33 31.6863 35.6863 29 39 29H627C630.314 29 633 31.6863 633 35V76H33V35Z" fill="url(#paint0_linear)"/>
</g>
<g filter="url(#filter2_i)">
<rect x="189" y="29" width="96" height="46" fill="#D6D1CD"/>
</g>
<line x1="189.5" y1="29" x2="189.5" y2="75" stroke="#CDC7C2"/>
<line x1="285.5" y1="29" x2="285.5" y2="75" stroke="#CDC7C2"/>
<path d="M220.896 68H223.656C226.344 68 228.156 66.32 228.156 63.668C228.156 61.16 226.536 59.672 223.824 59.672H220.896V68ZM222.432 66.668V61.004H223.704C225.516 61.004 226.548 62.06 226.548 63.872C226.548 65.66 225.576 66.668 223.836 66.668H222.432ZM232.421 68.12C233.105 68.12 233.849 67.976 234.485 67.712L234.137 66.656C233.669 66.848 233.153 66.956 232.661 66.956C231.617 66.956 230.969 66.464 230.789 65.504H234.569C234.605 65.264 234.641 64.904 234.641 64.64C234.641 63.044 233.669 62.048 232.109 62.048C230.369 62.048 229.205 63.284 229.205 65.096C229.205 66.968 230.429 68.12 232.421 68.12ZM230.753 64.568C230.837 63.692 231.269 63.224 232.001 63.224C232.757 63.224 233.201 63.716 233.201 64.568H230.753ZM238.578 68.12C239.286 68.12 239.946 67.964 240.498 67.664L240.162 66.608C239.742 66.788 239.298 66.884 238.914 66.884C237.834 66.884 237.21 66.212 237.21 65.048C237.21 63.944 237.774 63.344 238.806 63.344C239.238 63.344 239.73 63.44 240.15 63.608L240.474 62.396C239.97 62.168 239.358 62.048 238.758 62.048C236.874 62.048 235.65 63.296 235.65 65.216C235.65 67.04 236.742 68.12 238.578 68.12ZM245.39 68H247.37L244.958 64.784L247.142 62.168H245.354L243.218 64.844V59.132H241.706V68H243.218V65L245.39 68ZM250.118 68.12C251.714 68.12 252.662 67.412 252.662 66.248C252.662 64.064 249.362 64.796 249.362 63.812C249.362 63.464 249.782 63.248 250.49 63.248C250.97 63.248 251.546 63.344 252.086 63.5L252.41 62.348C251.87 62.156 251.186 62.048 250.526 62.048C248.858 62.048 247.886 62.72 247.886 63.92C247.886 66.092 251.138 65.264 251.138 66.32C251.138 66.692 250.742 66.92 250.094 66.92C249.53 66.92 248.75 66.764 248.138 66.524L247.802 67.664C248.462 67.952 249.314 68.12 250.118 68.12Z" fill="#2E3436"/>
<path fill-rule="evenodd" clip-rule="evenodd" d="M228.985 38.986C228.72 38.99 228.467 39.099 228.283 39.2891C228.098 39.4793 227.996 39.735 228 40V49C228 49 227.986 49.459 228.23 49.947C228.476 50.436 229.168 51 230 51H231.832C231.94 51.0178 232.05 51.0178 232.158 51H242C242 51 242.459 51.014 242.947 50.77C243.436 50.525 244 49.833 244 49V46C244 45.7348 243.895 45.4804 243.707 45.2929C243.52 45.1054 243.265 45 243 45H232C231.735 45 231.481 45.1054 231.293 45.2929C231.106 45.4804 231 45.7348 231 46V49H230V40C230.002 39.8662 229.977 39.7335 229.927 39.6095C229.876 39.4856 229.802 39.373 229.707 39.2784C229.612 39.1839 229.5 39.1093 229.376 39.0591C229.252 39.0088 229.119 38.984 228.985 38.986ZM233 47H242V49H233V47Z" fill="#2E3436"/>
<path d="M232 47H243V50H232V47ZM243 46H244V47H243V46ZM231 45H232V46H231V45ZM229 39H231V44H229V39Z" fill="#2E3436"/>
<path fill-rule="evenodd" clip-rule="evenodd" d="M233 36C232.735 36 232.481 36.1054 232.293 36.2929C232.106 36.4804 232 36.7348 232 37V44H234V38H238.086L241 40.914V44H243V40.5C243 40.2348 242.895 39.9805 242.707 39.793L239.207 36.293C239.02 36.1055 238.765 36.0001 238.5 36H233Z" fill="#2E3436"/>
<path fill-rule="evenodd" clip-rule="evenodd" d="M238 37V41H242L238 37Z" fill="#2E3436"/>
<path d="M243 45H244V46H243V45Z" fill="#2E3436"/>
<path d="M325 50V48H339V50H325Z" fill="#2E3436"/>
<path d="M326.975 47.0246V41H331V47.0246H326.975Z" fill="#2E3436"/>
<path d="M333 47V37H337V47H333Z" fill="#2E3436"/>
<path d="M322.15 68.12C324.01 68.12 325.222 67.172 325.222 65.708C325.222 62.756 320.554 63.932 320.554 61.784C320.554 60.908 321.262 60.428 322.534 60.428C323.242 60.428 324.01 60.572 324.61 60.824L324.91 60.044C324.202 59.732 323.398 59.564 322.606 59.564C320.746 59.564 319.534 60.488 319.534 61.94C319.534 64.796 324.19 63.728 324.19 65.852C324.19 66.692 323.47 67.232 322.21 67.232C321.454 67.232 320.518 67.028 319.702 66.692L319.402 67.472C320.326 67.892 321.262 68.12 322.15 68.12ZM328.603 68.06C328.999 68.06 329.395 67.964 329.671 67.844L329.455 67.148C329.275 67.232 329.011 67.28 328.807 67.28C328.207 67.28 327.811 66.896 327.811 66.32V63.02H329.395V62.216H327.811V60.524H326.851V62.216H326.071V63.02H326.851V66.452C326.851 67.412 327.547 68.06 328.603 68.06ZM334.535 68H335.207V64.244C335.207 62.864 334.391 62.096 332.879 62.096C332.123 62.096 331.307 62.3 330.683 62.648L330.923 63.356C331.523 63.092 332.123 62.96 332.687 62.96C333.719 62.96 334.247 63.392 334.247 64.244V64.628C331.655 64.652 330.527 65.192 330.527 66.428C330.527 67.46 331.295 68.12 332.483 68.12C333.215 68.12 333.839 67.88 334.307 67.46L334.535 68ZM334.247 66.704C333.887 67.064 333.359 67.28 332.759 67.28C331.991 67.28 331.487 66.896 331.487 66.32C331.487 65.6 332.303 65.3 334.247 65.288V66.704ZM339.08 68.06C339.476 68.06 339.872 67.964 340.148 67.844L339.932 67.148C339.752 67.232 339.488 67.28 339.284 67.28C338.684 67.28 338.288 66.896 338.288 66.32V63.02H339.872V62.216H338.288V60.524H337.328V62.216H336.548V63.02H337.328V66.452C337.328 67.412 338.024 68.06 339.08 68.06ZM343.187 68.12C344.615 68.12 345.491 67.448 345.491 66.38C345.491 64.256 342.035 65.048 342.035 63.74C342.035 63.236 342.575 62.912 343.439 62.912C343.931 62.912 344.507 63.02 344.999 63.188L345.227 62.408C344.735 62.204 344.147 62.096 343.535 62.096C342.035 62.096 341.075 62.756 341.075 63.848C341.075 65.924 344.519 65.06 344.519 66.476C344.519 67.004 344.051 67.304 343.259 67.304C342.647 67.304 341.831 67.136 341.219 66.872L340.991 67.652C341.651 67.952 342.455 68.12 343.187 68.12Z" fill="#2E3436"/>
<path opacity="0.5" d="M422 43V44H435V43H422Z" fill="#2E3436"/>
<path opacity="0.5" d="M422 40V41H435V40H422Z" fill="#2E3436"/>
<path opacity="0.5" d="M422 46V47H435V46H422Z" fill="#2E3436"/>
<path d="M428.5 36C424.37 36 421 39.3697 421 43.5C421 47.6303 424.37 51 428.5 51C432.63 51 436 47.6303 436 43.5C436 39.3697 432.63 36 428.5 36ZM428.5 38C428.756 38 429.006 38.0232 429.252 38.0566C429.443 38.3167 429.633 38.647 429.801 39.082C430.223 40.1788 430.5 41.757 430.5 43.5C430.5 45.243 430.223 46.8193 429.801 47.916C429.633 48.3522 429.441 48.683 429.25 48.9434C429.004 48.9767 428.755 48.9999 428.5 48.9999C428.245 48.9999 427.996 48.9766 427.75 48.9434C427.559 48.683 427.367 48.3522 427.199 47.916C426.777 46.8193 426.5 45.243 426.5 43.5C426.5 41.757 426.777 40.1788 427.199 39.082C427.367 38.6471 427.557 38.3168 427.748 38.0566C427.994 38.0232 428.244 38.0001 428.5 38.0001V38ZM426.412 38.4082C426.365 38.5158 426.31 38.608 426.266 38.7227C425.783 39.9785 425.5 41.6531 425.5 43.5C425.5 45.3469 425.783 47.0196 426.266 48.2754C426.31 48.3906 426.364 48.4836 426.412 48.5918C424.406 47.7735 423 45.8092 423 43.5C423 41.1908 424.406 39.2265 426.412 38.4082ZM430.588 38.4082C432.594 39.2265 434 41.1908 434 43.5C434 45.8092 432.594 47.7735 430.588 48.5918C430.636 48.4836 430.69 48.3906 430.734 48.2754C431.217 47.0196 431.5 45.3469 431.5 43.5C431.5 41.6531 431.217 39.9785 430.734 38.7227C430.69 38.608 430.635 38.5158 430.588 38.4082Z" fill="#2E3436"/>
<path d="M409.506 68H412.41C414.33 68 415.458 67.1 415.458 65.576C415.458 64.532 414.87 63.74 413.91 63.416C414.474 63.092 414.834 62.408 414.834 61.676C414.834 60.404 413.814 59.672 412.038 59.672H409.506V68ZM410.502 64.076H412.698C413.754 64.076 414.438 64.748 414.438 65.78C414.438 66.74 413.862 67.148 412.53 67.148H410.502V64.076ZM412.89 63.248C412.866 63.248 412.83 63.248 412.806 63.248H410.502V60.524H411.918C413.19 60.524 413.814 60.992 413.814 61.94C413.814 62.528 413.55 62.912 412.89 63.248ZM416.957 68H417.917V63.872C418.289 63.368 418.877 63.068 419.525 63.068C419.753 63.068 419.969 63.104 420.161 63.176L420.401 62.288C420.149 62.204 419.897 62.156 419.633 62.156C418.937 62.156 418.289 62.492 417.857 63.056L417.749 62.216H416.957V68ZM423.808 68.12C425.512 68.12 426.664 66.884 426.664 65.036C426.664 63.248 425.596 62.096 423.952 62.096C422.248 62.096 421.108 63.32 421.108 65.168C421.108 66.956 422.164 68.12 423.808 68.12ZM423.94 67.28C422.824 67.28 422.068 66.38 422.068 65.048C422.068 63.764 422.752 62.936 423.82 62.936C424.936 62.936 425.704 63.848 425.704 65.168C425.704 66.44 425.008 67.28 423.94 67.28ZM429.453 68H430.401L431.973 63.344L433.641 68H434.613L436.521 62.216H435.561L434.133 66.908L432.561 62.24H431.505L429.957 66.98L428.553 62.216H427.461L429.453 68ZM439.439 68.12C440.867 68.12 441.743 67.448 441.743 66.38C441.743 64.256 438.287 65.048 438.287 63.74C438.287 63.236 438.827 62.912 439.691 62.912C440.183 62.912 440.759 63.02 441.251 63.188L441.479 62.408C440.987 62.204 440.399 62.096 439.787 62.096C438.287 62.096 437.327 62.756 437.327 63.848C437.327 65.924 440.771 65.06 440.771 66.476C440.771 67.004 440.303 67.304 439.511 67.304C438.899 67.304 438.083 67.136 437.471 66.872L437.243 67.652C437.903 67.952 438.707 68.12 439.439 68.12ZM445.858 68.12C446.518 68.12 447.238 67.964 447.754 67.688L447.538 66.992C447.094 67.208 446.53 67.34 446.026 67.34C444.802 67.34 444.034 66.608 443.89 65.372H447.922C447.946 65.192 447.97 64.772 447.97 64.544C447.97 63.092 447.01 62.096 445.582 62.096C443.974 62.096 442.882 63.356 442.882 65.132C442.882 66.98 444.022 68.12 445.858 68.12ZM443.878 64.652C443.962 63.524 444.538 62.912 445.51 62.912C446.494 62.912 447.07 63.548 447.07 64.652H443.878Z" fill="#2E3436"/>
<g filter="url(#filter3_di)">
<rect x="550" y="37" width="34" height="32" rx="4" fill="url(#paint1_linear)"/>
<rect x="549.5" y="36.5" width="35" height="33" rx="4.5" stroke="url(#paint2_linear)"/>
</g>
<g filter="url(#filter4_d)">
<path d="M562 48H572.625V50H562V48ZM562 52H572.625V54H562V52ZM562 56H572.625V58H562V56Z" fill="#3E4446"/>
</g>
<g filter="url(#filter5_di)">
<rect x="508" y="37" width="34" height="32" rx="4" fill="url(#paint3_linear)"/>
<rect x="507.5" y="36.5" width="35" height="33" rx="4.5" stroke="url(#paint4_linear)"/>
</g>
<g filter="url(#filter6_d)">
<path d="M528 49C527.47 49 526.961 49.2107 526.586 49.5858C526.211 49.9609 526 50.4696 526 51C526 51.5304 526.211 52.0391 526.586 52.4142C526.961 52.7893 527.47 53 528 53C528.53 53 529.039 52.7893 529.414 52.4142C529.789 52.0391 530 51.5304 530 51C530 50.4696 529.789 49.9609 529.414 49.5858C529.039 49.2107 528.53 49 528 49ZM527 54C525.338 54 524 55.338 524 57V58C524 58.554 524.446 59 525 59H531C531.554 59 532 58.554 532 58V57C532 55.338 530.662 54 529 54H527Z" fill="#3E4446"/>
<path d="M522 47C521.47 47 520.961 47.2107 520.586 47.5858C520.211 47.9609 520 48.4696 520 49C520 49.5304 520.211 50.0391 520.586 50.4142C520.961 50.7893 521.47 51 522 51C522.53 51 523.039 50.7893 523.414 50.4142C523.789 50.0391 524 49.5304 524 49C524 48.4696 523.789 47.9609 523.414 47.5858C523.039 47.2107 522.53 47 522 47ZM521 52C519.338 52 518 53.338 518 55V56C518 56.554 518.446 57 519 57H523C523 55.335 524.056 53.962 525.517 53.375C525.247 52.953 524.874 52.6058 524.434 52.3655C523.995 52.1252 523.501 51.9995 523 52H521ZM526 55.268C525.4 55.608 525 56.244 525 57C525.554 57 526 56.554 526 56V55.75V55.268Z" fill="#3E4446"/>
</g>
<g filter="url(#filter7_d)">
<path d="M609.004 49.001H610.035C610.29 49.012 610.545 49.13 610.723 49.314L613.004 51.593L615.316 49.313C615.582 49.082 615.763 49.007 616.004 49H617.004V50C617.004 50.286 616.97 50.55 616.754 50.75L614.473 53.032L616.723 55.282C616.911 55.47 617.004 55.736 617.004 56.001V57.001H616.004C615.739 57.001 615.474 56.908 615.285 56.72L613.004 54.439L610.723 56.719C610.53 56.9041 610.272 57.0054 610.004 57.001H609.004V56.001C609.004 55.736 609.097 55.471 609.285 55.282L611.566 53.032L609.286 50.751C609.185 50.6558 609.107 50.5388 609.058 50.4087C609.009 50.2787 608.991 50.1392 609.004 50.001V49.001Z" fill="#2E3436"/>
</g>
<g filter="url(#filter8_di)">
<rect x="41" y="36" width="34" height="32" rx="4" fill="url(#paint5_linear)"/>
<rect x="40.5" y="35.5" width="35" height="33" rx="4.5" stroke="url(#paint6_linear)"/>
</g>
<g filter="url(#filter9_d)">
<path d="M59.0062 56V48.437L60.2872 49.72C60.4806 49.9043 60.739 50.005 61.0062 50H62.0062V49C62.0062 48.735 61.9132 48.47 61.7252 48.281L58.7252 45.281L58.4432 45H57.5682L57.2882 45.281L54.2882 48.281C54.1026 48.4738 54.0012 48.7324 54.0062 49V50H55.0062C55.2712 50 55.5362 49.907 55.7252 49.719L57.0062 48.437V56H59.0062Z" fill="#474747"/>
<path fill-rule="evenodd" clip-rule="evenodd" d="M52 57L52.006 59H64.006L64 57H52Z" fill="#474747"/>
</g>
<rect x="247.5" y="295.5" width="171" height="33" rx="16.5" fill="url(#paint7_linear)" stroke="#C3BDB6"/>
<path d="M276.717 317H279.621C281.541 317 282.669 316.1 282.669 314.576C282.669 313.532 282.081 312.74 281.121 312.416C281.685 312.092 282.045 311.408 282.045 310.676C282.045 309.404 281.025 308.672 279.249 308.672H276.717V317ZM277.713 313.076H279.909C280.965 313.076 281.649 313.748 281.649 314.78C281.649 315.74 281.073 316.148 279.741 316.148H277.713V313.076ZM280.101 312.248C280.077 312.248 280.041 312.248 280.017 312.248H277.713V309.524H279.129C280.401 309.524 281.025 309.992 281.025 310.94C281.025 311.528 280.761 311.912 280.101 312.248ZM284.168 317H285.128V312.872C285.5 312.368 286.088 312.068 286.736 312.068C286.964 312.068 287.18 312.104 287.372 312.176L287.612 311.288C287.36 311.204 287.108 311.156 286.844 311.156C286.148 311.156 285.5 311.492 285.068 312.056L284.96 311.216H284.168V317ZM291.019 317.12C292.723 317.12 293.875 315.884 293.875 314.036C293.875 312.248 292.807 311.096 291.163 311.096C289.459 311.096 288.319 312.32 288.319 314.168C288.319 315.956 289.375 317.12 291.019 317.12ZM291.151 316.28C290.035 316.28 289.279 315.38 289.279 314.048C289.279 312.764 289.963 311.936 291.031 311.936C292.147 311.936 292.915 312.848 292.915 314.168C292.915 315.44 292.219 316.28 291.151 316.28ZM296.664 317H297.612L299.184 312.344L300.852 317H301.824L303.732 311.216H302.772L301.344 315.908L299.772 311.24H298.716L297.168 315.98L295.764 311.216H294.672L296.664 317ZM306.65 317.12C308.078 317.12 308.954 316.448 308.954 315.38C308.954 313.256 305.498 314.048 305.498 312.74C305.498 312.236 306.038 311.912 306.902 311.912C307.394 311.912 307.97 312.02 308.462 312.188L308.69 311.408C308.198 311.204 307.61 311.096 306.998 311.096C305.498 311.096 304.538 311.756 304.538 312.848C304.538 314.924 307.982 314.06 307.982 315.476C307.982 316.004 307.514 316.304 306.722 316.304C306.11 316.304 305.294 316.136 304.682 315.872L304.454 316.652C305.114 316.952 305.918 317.12 306.65 317.12ZM313.069 317.12C313.729 317.12 314.449 316.964 314.965 316.688L314.749 315.992C314.305 316.208 313.741 316.34 313.237 316.34C312.013 316.34 311.245 315.608 311.101 314.372H315.133C315.157 314.192 315.181 313.772 315.181 313.544C315.181 312.092 314.221 311.096 312.793 311.096C311.185 311.096 310.093 312.356 310.093 314.132C310.093 315.98 311.233 317.12 313.069 317.12ZM311.089 313.652C311.173 312.524 311.749 311.912 312.721 311.912C313.705 311.912 314.281 312.548 314.281 313.652H311.089ZM321.601 317.12C323.461 317.12 324.673 316.172 324.673 314.708C324.673 311.756 320.005 312.932 320.005 310.784C320.005 309.908 320.713 309.428 321.985 309.428C322.693 309.428 323.461 309.572 324.061 309.824L324.361 309.044C323.653 308.732 322.849 308.564 322.057 308.564C320.197 308.564 318.985 309.488 318.985 310.94C318.985 313.796 323.641 312.728 323.641 314.852C323.641 315.692 322.921 316.232 321.661 316.232C320.905 316.232 319.969 316.028 319.153 315.692L318.853 316.472C319.777 316.892 320.713 317.12 321.601 317.12ZM330.022 317H330.982V313.208C330.982 311.924 330.13 311.096 328.834 311.096C328.198 311.096 327.562 311.3 327.034 311.708V308.132H326.074V317H327.034V312.524C327.478 312.128 328.006 311.936 328.57 311.936C329.506 311.936 330.022 312.464 330.022 313.4V317ZM336.459 317H337.131V313.244C337.131 311.864 336.315 311.096 334.803 311.096C334.047 311.096 333.231 311.3 332.607 311.648L332.847 312.356C333.447 312.092 334.047 311.96 334.611 311.96C335.643 311.96 336.171 312.392 336.171 313.244V313.628C333.579 313.652 332.451 314.192 332.451 315.428C332.451 316.46 333.219 317.12 334.407 317.12C335.139 317.12 335.763 316.88 336.231 316.46L336.459 317ZM336.171 315.704C335.811 316.064 335.283 316.28 334.683 316.28C333.915 316.28 333.411 315.896 333.411 315.32C333.411 314.6 334.227 314.3 336.171 314.288V315.704ZM339.023 317H339.983V312.872C340.355 312.368 340.943 312.068 341.591 312.068C341.819 312.068 342.035 312.104 342.227 312.176L342.467 311.288C342.215 311.204 341.963 311.156 341.699 311.156C341.003 311.156 340.355 311.492 339.923 312.056L339.815 311.216H339.023V317ZM346.151 317.12C346.811 317.12 347.531 316.964 348.047 316.688L347.831 315.992C347.387 316.208 346.823 316.34 346.319 316.34C345.095 316.34 344.327 315.608 344.183 314.372H348.215C348.239 314.192 348.263 313.772 348.263 313.544C348.263 312.092 347.303 311.096 345.875 311.096C344.267 311.096 343.175 312.356 343.175 314.132C343.175 315.98 344.315 317.12 346.151 317.12ZM344.171 313.652C344.255 312.524 344.831 311.912 345.803 311.912C346.787 311.912 347.363 312.548 347.363 313.652H344.171ZM352.095 317.12C352.791 317.12 353.379 316.868 353.823 316.436L354.063 317H354.735V308.132H353.775V311.612C353.367 311.276 352.839 311.096 352.227 311.096C350.595 311.096 349.515 312.32 349.515 314.156C349.515 315.932 350.547 317.12 352.095 317.12ZM353.775 315.62C353.451 316.04 352.959 316.28 352.371 316.28C351.219 316.28 350.475 315.38 350.475 314.048C350.475 312.776 351.147 311.936 352.263 311.936C352.911 311.936 353.427 312.2 353.775 312.656V315.62ZM359.475 317H362.019C364.539 317 366.255 315.356 366.255 312.68C366.255 310.16 364.743 308.672 362.199 308.672H359.475V317ZM360.471 316.136V309.536H362.079C364.107 309.536 365.235 310.724 365.235 312.836C365.235 314.936 364.119 316.136 362.139 316.136H360.471ZM370.502 317.12C371.162 317.12 371.882 316.964 372.398 316.688L372.182 315.992C371.738 316.208 371.174 316.34 370.67 316.34C369.446 316.34 368.678 315.608 368.534 314.372H372.566C372.59 314.192 372.614 313.772 372.614 313.544C372.614 312.092 371.654 311.096 370.226 311.096C368.618 311.096 367.526 312.356 367.526 314.132C367.526 315.98 368.666 317.12 370.502 317.12ZM368.522 313.652C368.606 312.524 369.182 311.912 370.154 311.912C371.138 311.912 371.714 312.548 371.714 313.652H368.522ZM376.506 317.12C377.202 317.12 377.922 316.952 378.402 316.664L378.186 315.968C377.706 316.196 377.178 316.328 376.734 316.328C375.534 316.328 374.85 315.488 374.85 314.084C374.85 312.692 375.522 311.936 376.722 311.936C377.178 311.936 377.694 312.044 378.174 312.26L378.402 311.48C377.874 311.228 377.31 311.096 376.734 311.096C375.018 311.096 373.866 312.368 373.866 314.276C373.866 316.064 374.85 317.12 376.506 317.12ZM383.5 317H384.772L382 313.832L384.508 311.216H383.368L380.8 313.892V308.132H379.84V317H380.8V313.94L383.5 317ZM387.568 317.12C388.996 317.12 389.872 316.448 389.872 315.38C389.872 313.256 386.416 314.048 386.416 312.74C386.416 312.236 386.956 311.912 387.82 311.912C388.312 311.912 388.888 312.02 389.38 312.188L389.608 311.408C389.116 311.204 388.528 311.096 387.916 311.096C386.416 311.096 385.456 311.756 385.456 312.848C385.456 314.924 388.9 314.06 388.9 315.476C388.9 316.004 388.432 316.304 387.64 316.304C387.028 316.304 386.212 316.136 385.6 315.872L385.372 316.652C386.032 316.952 386.836 317.12 387.568 317.12Z" fill="black"/>
<rect x="247.5" y="340.5" width="171" height="33" rx="16.5" fill="url(#paint8_linear)" stroke="#1B6ACB"/>
<path d="M286.029 362.12C287.889 362.12 289.101 361.172 289.101 359.708C289.101 356.756 284.433 357.932 284.433 355.784C284.433 354.908 285.141 354.428 286.413 354.428C287.121 354.428 287.889 354.572 288.489 354.824L288.789 354.044C288.081 353.732 287.277 353.564 286.485 353.564C284.625 353.564 283.413 354.488 283.413 355.94C283.413 358.796 288.069 357.728 288.069 359.852C288.069 360.692 287.349 361.232 286.089 361.232C285.333 361.232 284.397 361.028 283.581 360.692L283.281 361.472C284.205 361.892 285.141 362.12 286.029 362.12ZM290.502 362H291.462V356.216H290.502V362ZM290.994 354.86C291.426 354.86 291.678 354.608 291.678 354.176C291.678 353.744 291.426 353.492 290.994 353.492C290.562 353.492 290.31 353.744 290.31 354.176C290.31 354.608 290.562 354.86 290.994 354.86ZM295.543 364.724C297.211 364.724 298.303 363.572 298.303 361.832V356.216H297.631L297.451 356.708C297.031 356.312 296.455 356.096 295.783 356.096C294.175 356.096 293.083 357.308 293.083 359.144C293.083 360.932 294.115 362.12 295.663 362.12C296.335 362.12 296.911 361.892 297.343 361.484V361.976C297.343 363.26 296.767 363.896 295.615 363.896C295.099 363.896 294.475 363.764 293.935 363.536L293.731 364.268C294.331 364.568 294.943 364.724 295.543 364.724ZM297.343 357.656V360.62C297.019 361.04 296.527 361.28 295.939 361.28C294.787 361.28 294.043 360.38 294.043 359.048C294.043 357.776 294.715 356.936 295.831 356.936C296.479 356.936 296.995 357.2 297.343 357.656ZM304.247 362H305.207V358.208C305.207 356.924 304.355 356.096 303.059 356.096C302.399 356.096 301.739 356.324 301.187 356.732L300.971 356.216H300.299V362H301.259V357.476C301.703 357.128 302.231 356.936 302.795 356.936C303.731 356.936 304.247 357.464 304.247 358.4V362ZM309.744 362H310.704V356.216H309.744V362ZM310.236 354.86C310.668 354.86 310.92 354.608 310.92 354.176C310.92 353.744 310.668 353.492 310.236 353.492C309.804 353.492 309.552 353.744 309.552 354.176C309.552 354.608 309.804 354.86 310.236 354.86ZM316.645 362H317.605V358.208C317.605 356.924 316.753 356.096 315.457 356.096C314.797 356.096 314.137 356.324 313.585 356.732L313.369 356.216H312.697V362H313.657V357.476C314.101 357.128 314.629 356.936 315.193 356.936C316.129 356.936 316.645 357.464 316.645 358.4V362ZM324.122 362.06C324.518 362.06 324.914 361.964 325.19 361.844L324.974 361.148C324.794 361.232 324.53 361.28 324.326 361.28C323.726 361.28 323.33 360.896 323.33 360.32V357.02H324.914V356.216H323.33V354.524H322.37V356.216H321.59V357.02H322.37V360.452C322.37 361.412 323.066 362.06 324.122 362.06ZM328.806 362.12C330.51 362.12 331.662 360.884 331.662 359.036C331.662 357.248 330.594 356.096 328.95 356.096C327.246 356.096 326.106 357.32 326.106 359.168C326.106 360.956 327.162 362.12 328.806 362.12ZM328.938 361.28C327.822 361.28 327.066 360.38 327.066 359.048C327.066 357.764 327.75 356.936 328.818 356.936C329.934 356.936 330.702 357.848 330.702 359.168C330.702 360.44 330.006 361.28 328.938 361.28ZM335.012 362H336.056L336.944 359.528H340.412L341.24 362H342.356L339.428 353.672H338.132L335.012 362ZM337.244 358.664L338.72 354.524L340.112 358.664H337.244ZM347.383 362H348.343V358.208C348.343 356.924 347.491 356.096 346.195 356.096C345.535 356.096 344.875 356.324 344.323 356.732L344.107 356.216H343.435V362H344.395V357.476C344.839 357.128 345.367 356.936 345.931 356.936C346.867 356.936 347.383 357.464 347.383 358.4V362ZM353.904 362H355.176L352.404 358.832L354.912 356.216H353.772L351.204 358.892V353.132H350.244V362H351.204V358.94L353.904 362ZM356.221 362H357.181V356.216H356.221V362ZM356.713 354.86C357.145 354.86 357.397 354.608 357.397 354.176C357.397 353.744 357.145 353.492 356.713 353.492C356.281 353.492 356.029 353.744 356.029 354.176C356.029 354.608 356.281 354.86 356.713 354.86ZM360.83 362H361.826L364.034 354.944L366.362 362H367.322L369.794 353.672H368.798L366.866 360.632L364.646 353.732H363.53L361.37 360.704L359.474 353.672H358.322L360.83 362ZM373.543 362.12C374.203 362.12 374.923 361.964 375.439 361.688L375.223 360.992C374.779 361.208 374.215 361.34 373.711 361.34C372.487 361.34 371.719 360.608 371.575 359.372H375.607C375.631 359.192 375.655 358.772 375.655 358.544C375.655 357.092 374.695 356.096 373.267 356.096C371.659 356.096 370.567 357.356 370.567 359.132C370.567 360.98 371.707 362.12 373.543 362.12ZM371.563 358.652C371.647 357.524 372.223 356.912 373.195 356.912C374.179 356.912 374.755 357.548 374.755 358.652H371.563ZM379.739 362.12C381.395 362.12 382.499 360.884 382.499 359.036C382.499 357.272 381.443 356.096 379.859 356.096C379.211 356.096 378.659 356.288 378.239 356.66V353.132H377.279V362H377.951L378.143 361.556C378.551 361.928 379.091 362.12 379.739 362.12ZM378.239 357.584C378.563 357.164 379.055 356.936 379.631 356.936C380.783 356.936 381.539 357.848 381.539 359.18C381.539 360.44 380.855 361.28 379.739 361.28C379.103 361.28 378.587 361.016 378.239 360.548V357.584Z" fill="white"/>
<path fill-rule="evenodd" clip-rule="evenodd" d="M314 149C312.939 149 311.922 149.421 311.172 150.172C310.421 150.922 310 151.939 310 153V205C310 206.061 310.421 207.078 311.172 207.828C311.922 208.579 312.939 209 314 209H354C355.061 209 356.078 208.579 356.828 207.828C357.579 207.078 358 206.061 358 205V167C358 165.939 357.578 164.922 356.828 164.172L342.828 150.172C342.078 149.422 341.061 149 340 149H314ZM318 157H338.344L350 168.656V201H318V157Z" fill="#DADDDA"/>
<path fill-rule="evenodd" clip-rule="evenodd" d="M338 153V169H354L338 153Z" fill="#DADDDA"/>
<path d="M251.007 255H253.935V242.568L262.119 255H265.575V238.344H262.622L262.599 250.728L254.559 238.344H251.007V255ZM274.324 255.24C277.996 255.24 280.468 252.72 280.468 248.976C280.468 245.4 278.188 243.096 274.684 243.096C270.988 243.096 268.516 245.592 268.516 249.36C268.516 252.912 270.772 255.24 274.324 255.24ZM274.588 252.648C272.788 252.648 271.612 251.256 271.612 249.096C271.612 246.984 272.692 245.688 274.396 245.688C276.196 245.688 277.372 247.104 277.372 249.288C277.372 251.352 276.292 252.648 274.588 252.648ZM292.588 255.24C294.052 255.24 295.3 254.664 296.164 253.656L296.812 255H298.78V237.264H295.804V243.984C295.06 243.384 294.1 243.096 292.996 243.096C289.708 243.096 287.524 245.544 287.524 249.264C287.524 252.864 289.612 255.24 292.588 255.24ZM295.804 251.592C295.276 252.264 294.484 252.648 293.548 252.648C291.748 252.648 290.62 251.256 290.62 249.072C290.62 246.984 291.676 245.688 293.404 245.688C294.388 245.688 295.252 246.096 295.804 246.792V251.592ZM307.948 255.24C309.316 255.24 310.804 254.952 312.076 254.424L311.38 252.312C310.444 252.696 309.412 252.912 308.428 252.912C306.34 252.912 305.044 251.928 304.684 250.008H312.244C312.316 249.528 312.388 248.808 312.388 248.28C312.388 245.088 310.444 243.096 307.324 243.096C303.844 243.096 301.516 245.568 301.516 249.192C301.516 252.936 303.964 255.24 307.948 255.24ZM304.612 248.136C304.78 246.384 305.644 245.448 307.108 245.448C308.62 245.448 309.508 246.432 309.508 248.136H304.612ZM320.262 255.24C321.678 255.24 322.998 254.928 324.102 254.328L323.43 252.216C322.59 252.576 321.702 252.768 320.934 252.768C318.774 252.768 317.526 251.424 317.526 249.096C317.526 246.888 318.654 245.688 320.718 245.688C321.582 245.688 322.566 245.88 323.406 246.216L324.054 243.792C323.046 243.336 321.822 243.096 320.622 243.096C316.854 243.096 314.406 245.592 314.406 249.432C314.406 253.08 316.59 255.24 320.262 255.24ZM333.885 255H337.845L333.021 248.568L337.389 243.336H333.813L329.541 248.688V237.264H326.517V255H329.541V249L333.885 255ZM343.341 255.24C346.533 255.24 348.429 253.824 348.429 251.496C348.429 247.128 341.829 248.592 341.829 246.624C341.829 245.928 342.669 245.496 344.085 245.496C345.045 245.496 346.197 245.688 347.277 246L347.925 243.696C346.845 243.312 345.477 243.096 344.157 243.096C340.821 243.096 338.877 244.44 338.877 246.84C338.877 251.184 345.381 249.528 345.381 251.64C345.381 252.384 344.589 252.84 343.293 252.84C342.165 252.84 340.605 252.528 339.381 252.048L338.709 254.328C340.029 254.904 341.733 255.24 343.341 255.24ZM356.625 255H359.577V245.784H362.937V243.336H359.577V241.488C359.577 240.24 360.249 239.568 361.521 239.568C362.121 239.568 362.865 239.688 363.321 239.928L363.921 237.72C363.177 237.288 362.265 237.024 361.281 237.024C358.497 237.024 356.625 238.92 356.625 241.752V243.336H354.825V245.784H356.625V255ZM370.089 255.24C373.761 255.24 376.233 252.72 376.233 248.976C376.233 245.4 373.953 243.096 370.449 243.096C366.753 243.096 364.281 245.592 364.281 249.36C364.281 252.912 366.537 255.24 370.089 255.24ZM370.353 252.648C368.553 252.648 367.377 251.256 367.377 249.096C367.377 246.984 368.457 245.688 370.161 245.688C371.961 245.688 373.137 247.104 373.137 249.288C373.137 251.352 372.057 252.648 370.353 252.648ZM382.834 255.192C384.202 255.192 385.498 254.664 386.482 253.728L387.034 255H389.218V243.336H386.146V251.712C385.498 252.24 384.754 252.528 383.962 252.528C382.306 252.528 381.802 251.256 381.802 250.104V243.336H378.754V250.776C378.754 253.464 380.41 255.192 382.834 255.192ZM400.385 255H403.433V247.8C403.433 244.92 401.801 243.144 399.185 243.144C397.769 243.144 396.449 243.648 395.417 244.608L394.889 243.336H392.681V255H395.753V246.648C396.449 246.096 397.241 245.808 398.129 245.808C399.617 245.808 400.385 246.648 400.385 248.232V255ZM411.017 255.24C412.481 255.24 413.729 254.664 414.593 253.656L415.241 255H417.209V237.264H414.233V243.984C413.489 243.384 412.529 243.096 411.425 243.096C408.137 243.096 405.953 245.544 405.953 249.264C405.953 252.864 408.041 255.24 411.017 255.24ZM414.233 251.592C413.705 252.264 412.913 252.648 411.977 252.648C410.177 252.648 409.049 251.256 409.049 249.072C409.049 246.984 410.105 245.688 411.833 245.688C412.817 245.688 413.681 246.096 414.233 246.792V251.592Z" fill="#2E3436"/>
<defs>
<filter id="filter0_d" x="0" y="0" width="666" height="526" filterUnits="userSpaceOnUse" color-interpolation-filters="sRGB">
<feFlood flood-opacity="0" result="BackgroundImageFix"/>
<feColorMatrix in="SourceAlpha" type="matrix" values="0 0 0 0 0 0 0 0 0 0 0 0 0 0 0 0 0 0 127 0"/>
<feMorphology radius="1" operator="erode" in="SourceAlpha" result="effect1_dropShadow"/>
<feOffset dy="4"/>
<feGaussianBlur stdDeviation="16.5"/>
<feColorMatrix type="matrix" values="0 0 0 0 0 0 0 0 0 0 0 0 0 0 0 0 0 0 0.25 0"/>
<feBlend mode="normal" in2="BackgroundImageFix" result="effect1_dropShadow"/>
<feBlend mode="normal" in="SourceGraphic" in2="effect1_dropShadow" result="shape"/>
</filter>
<filter id="filter1_i" x="33" y="29" width="600" height="47" filterUnits="userSpaceOnUse" color-interpolation-filters="sRGB">
<feFlood flood-opacity="0" result="BackgroundImageFix"/>
<feBlend mode="normal" in="SourceGraphic" in2="BackgroundImageFix" result="shape"/>
<feColorMatrix in="SourceAlpha" type="matrix" values="0 0 0 0 0 0 0 0 0 0 0 0 0 0 0 0 0 0 127 0" result="hardAlpha"/>
<feOffset dy="1"/>
<feComposite in2="hardAlpha" operator="arithmetic" k2="-1" k3="1"/>
<feColorMatrix type="matrix" values="0 0 0 0 0.976471 0 0 0 0 0.972549 0 0 0 0 0.972549 0 0 0 1 0"/>
<feBlend mode="normal" in2="shape" result="effect1_innerShadow"/>
</filter>
<filter id="filter2_i" x="189" y="29" width="96" height="46" filterUnits="userSpaceOnUse" color-interpolation-filters="sRGB">
<feFlood flood-opacity="0" result="BackgroundImageFix"/>
<feBlend mode="normal" in="SourceGraphic" in2="BackgroundImageFix" result="shape"/>
<feColorMatrix in="SourceAlpha" type="matrix" values="0 0 0 0 0 0 0 0 0 0 0 0 0 0 0 0 0 0 127 0" result="hardAlpha"/>
<feOffset dy="1"/>
<feComposite in2="hardAlpha" operator="arithmetic" k2="-1" k3="1"/>
<feColorMatrix type="matrix" values="0 0 0 0 0.894118 0 0 0 0 0.882353 0 0 0 0 0.870588 0 0 0 1 0"/>
<feBlend mode="normal" in2="shape" result="effect1_innerShadow"/>
</filter>
<filter id="filter3_di" x="545" y="33" width="44" height="42" filterUnits="userSpaceOnUse" color-interpolation-filters="sRGB">
<feFlood flood-opacity="0" result="BackgroundImageFix"/>
<feColorMatrix in="SourceAlpha" type="matrix" values="0 0 0 0 0 0 0 0 0 0 0 0 0 0 0 0 0 0 127 0"/>
<feOffset dy="1"/>
<feGaussianBlur stdDeviation="2"/>
<feColorMatrix type="matrix" values="0 0 0 0 0.54902 0 0 0 0 0.54902 0 0 0 0 0.54902 0 0 0 0.25 0"/>
<feBlend mode="normal" in2="BackgroundImageFix" result="effect1_dropShadow"/>
<feBlend mode="normal" in="SourceGraphic" in2="effect1_dropShadow" result="shape"/>
<feColorMatrix in="SourceAlpha" type="matrix" values="0 0 0 0 0 0 0 0 0 0 0 0 0 0 0 0 0 0 127 0" result="hardAlpha"/>
<feOffset dy="2"/>
<feComposite in2="hardAlpha" operator="arithmetic" k2="-1" k3="1"/>
<feColorMatrix type="matrix" values="0 0 0 0 1 0 0 0 0 1 0 0 0 0 1 0 0 0 1 0"/>
<feBlend mode="normal" in2="shape" result="effect2_innerShadow"/>
</filter>
<filter id="filter4_d" x="562" y="48" width="10.625" height="11" filterUnits="userSpaceOnUse" color-interpolation-filters="sRGB">
<feFlood flood-opacity="0" result="BackgroundImageFix"/>
<feColorMatrix in="SourceAlpha" type="matrix" values="0 0 0 0 0 0 0 0 0 0 0 0 0 0 0 0 0 0 127 0"/>
<feOffset dy="1"/>
<feColorMatrix type="matrix" values="0 0 0 0 1 0 0 0 0 1 0 0 0 0 1 0 0 0 1 0"/>
<feBlend mode="normal" in2="BackgroundImageFix" result="effect1_dropShadow"/>
<feBlend mode="normal" in="SourceGraphic" in2="effect1_dropShadow" result="shape"/>
</filter>
<filter id="filter5_di" x="503" y="33" width="44" height="42" filterUnits="userSpaceOnUse" color-interpolation-filters="sRGB">
<feFlood flood-opacity="0" result="BackgroundImageFix"/>
<feColorMatrix in="SourceAlpha" type="matrix" values="0 0 0 0 0 0 0 0 0 0 0 0 0 0 0 0 0 0 127 0"/>
<feOffset dy="1"/>
<feGaussianBlur stdDeviation="2"/>
<feColorMatrix type="matrix" values="0 0 0 0 0.54902 0 0 0 0 0.54902 0 0 0 0 0.54902 0 0 0 0.25 0"/>
<feBlend mode="normal" in2="BackgroundImageFix" result="effect1_dropShadow"/>
<feBlend mode="normal" in="SourceGraphic" in2="effect1_dropShadow" result="shape"/>
<feColorMatrix in="SourceAlpha" type="matrix" values="0 0 0 0 0 0 0 0 0 0 0 0 0 0 0 0 0 0 127 0" result="hardAlpha"/>
<feOffset dy="2"/>
<feComposite in2="hardAlpha" operator="arithmetic" k2="-1" k3="1"/>
<feColorMatrix type="matrix" values="0 0 0 0 1 0 0 0 0 1 0 0 0 0 1 0 0 0 1 0"/>
<feBlend mode="normal" in2="shape" result="effect2_innerShadow"/>
</filter>
<filter id="filter6_d" x="517" y="45" width="16" height="17" filterUnits="userSpaceOnUse" color-interpolation-filters="sRGB">
<feFlood flood-opacity="0" result="BackgroundImageFix"/>
<feColorMatrix in="SourceAlpha" type="matrix" values="0 0 0 0 0 0 0 0 0 0 0 0 0 0 0 0 0 0 127 0"/>
<feOffset dy="1"/>
<feColorMatrix type="matrix" values="0 0 0 0 1 0 0 0 0 1 0 0 0 0 1 0 0 0 1 0"/>
<feBlend mode="normal" in2="BackgroundImageFix" result="effect1_dropShadow"/>
<feBlend mode="normal" in="SourceGraphic" in2="effect1_dropShadow" result="shape"/>
</filter>
<filter id="filter7_d" x="609" y="49" width="8.00425" height="9.00114" filterUnits="userSpaceOnUse" color-interpolation-filters="sRGB">
<feFlood flood-opacity="0" result="BackgroundImageFix"/>
<feColorMatrix in="SourceAlpha" type="matrix" values="0 0 0 0 0 0 0 0 0 0 0 0 0 0 0 0 0 0 127 0"/>
<feOffset dy="1"/>
<feColorMatrix type="matrix" values="0 0 0 0 1 0 0 0 0 1 0 0 0 0 1 0 0 0 1 0"/>
<feBlend mode="normal" in2="BackgroundImageFix" result="effect1_dropShadow"/>
<feBlend mode="normal" in="SourceGraphic" in2="effect1_dropShadow" result="shape"/>
</filter>
<filter id="filter8_di" x="36" y="32" width="44" height="42" filterUnits="userSpaceOnUse" color-interpolation-filters="sRGB">
<feFlood flood-opacity="0" result="BackgroundImageFix"/>
<feColorMatrix in="SourceAlpha" type="matrix" values="0 0 0 0 0 0 0 0 0 0 0 0 0 0 0 0 0 0 127 0"/>
<feOffset dy="1"/>
<feGaussianBlur stdDeviation="2"/>
<feColorMatrix type="matrix" values="0 0 0 0 0.54902 0 0 0 0 0.54902 0 0 0 0 0.54902 0 0 0 0.25 0"/>
<feBlend mode="normal" in2="BackgroundImageFix" result="effect1_dropShadow"/>
<feBlend mode="normal" in="SourceGraphic" in2="effect1_dropShadow" result="shape"/>
<feColorMatrix in="SourceAlpha" type="matrix" values="0 0 0 0 0 0 0 0 0 0 0 0 0 0 0 0 0 0 127 0" result="hardAlpha"/>
<feOffset dy="2"/>
<feComposite in2="hardAlpha" operator="arithmetic" k2="-1" k3="1"/>
<feColorMatrix type="matrix" values="0 0 0 0 1 0 0 0 0 1 0 0 0 0 1 0 0 0 1 0"/>
<feBlend mode="normal" in2="shape" result="effect2_innerShadow"/>
</filter>
<filter id="filter9_d" x="52" y="45" width="12.006" height="15" filterUnits="userSpaceOnUse" color-interpolation-filters="sRGB">
<feFlood flood-opacity="0" result="BackgroundImageFix"/>
<feColorMatrix in="SourceAlpha" type="matrix" values="0 0 0 0 0 0 0 0 0 0 0 0 0 0 0 0 0 0 127 0"/>
<feOffset dy="1"/>
<feColorMatrix type="matrix" values="0 0 0 0 1 0 0 0 0 1 0 0 0 0 1 0 0 0 1 0"/>
<feBlend mode="normal" in2="BackgroundImageFix" result="effect1_dropShadow"/>
<feBlend mode="normal" in="SourceGraphic" in2="effect1_dropShadow" result="shape"/>
</filter>
<linearGradient id="paint0_linear" x1="333" y1="29" x2="333" y2="76" gradientUnits="userSpaceOnUse">
<stop stop-color="#E1DEDB"/>
<stop offset="0.976143" stop-color="#DAD6D2"/>
<stop offset="0.981161" stop-color="#BFB8B1"/>
<stop offset="1" stop-color="#BFB8B1"/>
</linearGradient>
<linearGradient id="paint1_linear" x1="567" y1="37" x2="567" y2="69" gradientUnits="userSpaceOnUse">
<stop stop-color="#F6F4F3"/>
<stop offset="1" stop-color="#EDEBE9"/>
</linearGradient>
<linearGradient id="paint2_linear" x1="567" y1="37" x2="567" y2="69" gradientUnits="userSpaceOnUse">
<stop stop-color="#CDC7C2"/>
<stop offset="1" stop-color="#C1BAB4"/>
</linearGradient>
<linearGradient id="paint3_linear" x1="525" y1="37" x2="525" y2="69" gradientUnits="userSpaceOnUse">
<stop stop-color="#F6F4F3"/>
<stop offset="1" stop-color="#EDEBE9"/>
</linearGradient>
<linearGradient id="paint4_linear" x1="525" y1="37" x2="525" y2="69" gradientUnits="userSpaceOnUse">
<stop stop-color="#CDC7C2"/>
<stop offset="1" stop-color="#C1BAB4"/>
</linearGradient>
<linearGradient id="paint5_linear" x1="58" y1="36" x2="58" y2="68" gradientUnits="userSpaceOnUse">
<stop stop-color="#F6F4F3"/>
<stop offset="1" stop-color="#EDEBE9"/>
</linearGradient>
<linearGradient id="paint6_linear" x1="58" y1="36" x2="58" y2="68" gradientUnits="userSpaceOnUse">
<stop stop-color="#CDC7C2"/>
<stop offset="1" stop-color="#C1BAB4"/>
</linearGradient>
<linearGradient id="paint7_linear" x1="333" y1="296" x2="333" y2="328" gradientUnits="userSpaceOnUse">
<stop stop-color="#FEFDFD"/>
<stop offset="0.0770258" stop-color="#F6F4F3"/>
<stop offset="1" stop-color="#ECEBE9"/>
</linearGradient>
<linearGradient id="paint8_linear" x1="333" y1="341" x2="333" y2="373" gradientUnits="userSpaceOnUse">
<stop offset="0.0416667" stop-color="#3282E4"/>
<stop offset="0.90625" stop-color="#247AE2"/>
<stop offset="1" stop-color="#2379E2"/>
</linearGradient>
</defs>
</svg>
