<svg width="666" height="526" viewBox="0 0 666 526" fill="none" xmlns="http://www.w3.org/2000/svg">
<g filter="url(#filter0_d)">
<rect x="32" y="28" width="602" height="462" rx="7" fill="#F6F5F4"/>
<rect x="32.5" y="28.5" width="601" height="461" rx="6.5" stroke="black" stroke-opacity="0.35"/>
</g>
<g filter="url(#filter1_i)">
<path d="M33 35C33 31.6863 35.6863 29 39 29H627C630.314 29 633 31.6863 633 35V76H33V35Z" fill="url(#paint0_linear)"/>
</g>
<g filter="url(#filter2_i)">
<path d="M33 35C33 31.6863 35.6863 29 39 29H627C630.314 29 633 31.6863 633 35V76H33V35Z" fill="url(#paint1_linear)"/>
</g>
<g filter="url(#filter3_i)">
<rect x="189" y="29" width="96" height="46" fill="#D6D1CD"/>
</g>
<line x1="189.5" y1="29" x2="189.5" y2="75" stroke="#CDC7C2"/>
<line x1="285.5" y1="29" x2="285.5" y2="75" stroke="#CDC7C2"/>
<path d="M220.896 68H223.656C226.344 68 228.156 66.32 228.156 63.668C228.156 61.16 226.536 59.672 223.824 59.672H220.896V68ZM222.432 66.668V61.004H223.704C225.516 61.004 226.548 62.06 226.548 63.872C226.548 65.66 225.576 66.668 223.836 66.668H222.432ZM232.421 68.12C233.105 68.12 233.849 67.976 234.485 67.712L234.137 66.656C233.669 66.848 233.153 66.956 232.661 66.956C231.617 66.956 230.969 66.464 230.789 65.504H234.569C234.605 65.264 234.641 64.904 234.641 64.64C234.641 63.044 233.669 62.048 232.109 62.048C230.369 62.048 229.205 63.284 229.205 65.096C229.205 66.968 230.429 68.12 232.421 68.12ZM230.753 64.568C230.837 63.692 231.269 63.224 232.001 63.224C232.757 63.224 233.201 63.716 233.201 64.568H230.753ZM238.578 68.12C239.286 68.12 239.946 67.964 240.498 67.664L240.162 66.608C239.742 66.788 239.298 66.884 238.914 66.884C237.834 66.884 237.21 66.212 237.21 65.048C237.21 63.944 237.774 63.344 238.806 63.344C239.238 63.344 239.73 63.44 240.15 63.608L240.474 62.396C239.97 62.168 239.358 62.048 238.758 62.048C236.874 62.048 235.65 63.296 235.65 65.216C235.65 67.04 236.742 68.12 238.578 68.12ZM245.39 68H247.37L244.958 64.784L247.142 62.168H245.354L243.218 64.844V59.132H241.706V68H243.218V65L245.39 68ZM250.118 68.12C251.714 68.12 252.662 67.412 252.662 66.248C252.662 64.064 249.362 64.796 249.362 63.812C249.362 63.464 249.782 63.248 250.49 63.248C250.97 63.248 251.546 63.344 252.086 63.5L252.41 62.348C251.87 62.156 251.186 62.048 250.526 62.048C248.858 62.048 247.886 62.72 247.886 63.92C247.886 66.092 251.138 65.264 251.138 66.32C251.138 66.692 250.742 66.92 250.094 66.92C249.53 66.92 248.75 66.764 248.138 66.524L247.802 67.664C248.462 67.952 249.314 68.12 250.118 68.12Z" fill="#2E3436"/>
<path fill-rule="evenodd" clip-rule="evenodd" d="M228.985 38.986C228.72 38.9899 228.467 39.099 228.283 39.2891C228.098 39.4793 227.996 39.7349 228 40V49C228 49 227.986 49.459 228.23 49.947C228.476 50.436 229.168 51 230 51H231.832C231.94 51.0178 232.05 51.0178 232.158 51H242C242 51 242.459 51.014 242.947 50.77C243.436 50.525 244 49.833 244 49V46C244 45.7348 243.895 45.4804 243.707 45.2929C243.52 45.1054 243.265 45 243 45H232C231.735 45 231.481 45.1054 231.293 45.2929C231.106 45.4804 231 45.7348 231 46V49H230V40C230.002 39.8662 229.977 39.7334 229.927 39.6095C229.876 39.4856 229.802 39.373 229.707 39.2784C229.612 39.1839 229.5 39.1093 229.376 39.0591C229.252 39.0088 229.119 38.984 228.985 38.986ZM233 47H242V49H233V47Z" fill="#2E3436"/>
<path d="M232 47H243V50H232V47ZM243 46H244V47H243V46ZM231 45H232V46H231V45ZM229 39H231V44H229V39Z" fill="#2E3436"/>
<path fill-rule="evenodd" clip-rule="evenodd" d="M233 36C232.735 36 232.481 36.1054 232.293 36.2929C232.106 36.4804 232 36.7348 232 37V44H234V38H238.086L241 40.914V44H243V40.5C243 40.2348 242.895 39.9805 242.707 39.793L239.207 36.293C239.02 36.1055 238.765 36.0001 238.5 36H233Z" fill="#2E3436"/>
<path fill-rule="evenodd" clip-rule="evenodd" d="M238 37V41H242L238 37Z" fill="#2E3436"/>
<path d="M243 45H244V46H243V45Z" fill="#2E3436"/>
<path d="M325 50V48H339V50H325Z" fill="#2E3436"/>
<path d="M326.975 47.0246V41H331V47.0246H326.975Z" fill="#2E3436"/>
<path d="M333 47V37H337V47H333Z" fill="#2E3436"/>
<path d="M322.15 68.12C324.01 68.12 325.222 67.172 325.222 65.708C325.222 62.756 320.554 63.932 320.554 61.784C320.554 60.908 321.262 60.428 322.534 60.428C323.242 60.428 324.01 60.572 324.61 60.824L324.91 60.044C324.202 59.732 323.398 59.564 322.606 59.564C320.746 59.564 319.534 60.488 319.534 61.94C319.534 64.796 324.19 63.728 324.19 65.852C324.19 66.692 323.47 67.232 322.21 67.232C321.454 67.232 320.518 67.028 319.702 66.692L319.402 67.472C320.326 67.892 321.262 68.12 322.15 68.12ZM328.603 68.06C328.999 68.06 329.395 67.964 329.671 67.844L329.455 67.148C329.275 67.232 329.011 67.28 328.807 67.28C328.207 67.28 327.811 66.896 327.811 66.32V63.02H329.395V62.216H327.811V60.524H326.851V62.216H326.071V63.02H326.851V66.452C326.851 67.412 327.547 68.06 328.603 68.06ZM334.535 68H335.207V64.244C335.207 62.864 334.391 62.096 332.879 62.096C332.123 62.096 331.307 62.3 330.683 62.648L330.923 63.356C331.523 63.092 332.123 62.96 332.687 62.96C333.719 62.96 334.247 63.392 334.247 64.244V64.628C331.655 64.652 330.527 65.192 330.527 66.428C330.527 67.46 331.295 68.12 332.483 68.12C333.215 68.12 333.839 67.88 334.307 67.46L334.535 68ZM334.247 66.704C333.887 67.064 333.359 67.28 332.759 67.28C331.991 67.28 331.487 66.896 331.487 66.32C331.487 65.6 332.303 65.3 334.247 65.288V66.704ZM339.08 68.06C339.476 68.06 339.872 67.964 340.148 67.844L339.932 67.148C339.752 67.232 339.488 67.28 339.284 67.28C338.684 67.28 338.288 66.896 338.288 66.32V63.02H339.872V62.216H338.288V60.524H337.328V62.216H336.548V63.02H337.328V66.452C337.328 67.412 338.024 68.06 339.08 68.06ZM343.187 68.12C344.615 68.12 345.491 67.448 345.491 66.38C345.491 64.256 342.035 65.048 342.035 63.74C342.035 63.236 342.575 62.912 343.439 62.912C343.931 62.912 344.507 63.02 344.999 63.188L345.227 62.408C344.735 62.204 344.147 62.096 343.535 62.096C342.035 62.096 341.075 62.756 341.075 63.848C341.075 65.924 344.519 65.06 344.519 66.476C344.519 67.004 344.051 67.304 343.259 67.304C342.647 67.304 341.831 67.136 341.219 66.872L340.991 67.652C341.651 67.952 342.455 68.12 343.187 68.12Z" fill="#2E3436"/>
<path opacity="0.5" d="M422 43V44H435V43H422Z" fill="#2E3436"/>
<path opacity="0.5" d="M422 40V41H435V40H422Z" fill="#2E3436"/>
<path opacity="0.5" d="M422 46V47H435V46H422Z" fill="#2E3436"/>
<path d="M428.5 36C424.37 36 421 39.3697 421 43.5C421 47.6303 424.37 51 428.5 51C432.63 51 436 47.6303 436 43.5C436 39.3697 432.63 36 428.5 36ZM428.5 38C428.756 38 429.006 38.0232 429.252 38.0566C429.443 38.3167 429.633 38.647 429.801 39.082C430.223 40.1788 430.5 41.757 430.5 43.5C430.5 45.243 430.223 46.8193 429.801 47.916C429.633 48.3522 429.441 48.683 429.25 48.9434C429.004 48.9767 428.755 48.9999 428.5 48.9999C428.245 48.9999 427.996 48.9766 427.75 48.9434C427.559 48.683 427.367 48.3522 427.199 47.916C426.777 46.8193 426.5 45.243 426.5 43.5C426.5 41.757 426.777 40.1788 427.199 39.082C427.367 38.6471 427.557 38.3168 427.748 38.0566C427.994 38.0232 428.244 38.0001 428.5 38.0001V38ZM426.412 38.4082C426.365 38.5158 426.31 38.608 426.266 38.7227C425.783 39.9785 425.5 41.6531 425.5 43.5C425.5 45.3469 425.783 47.0196 426.266 48.2754C426.31 48.3906 426.364 48.4836 426.412 48.5918C424.406 47.7735 423 45.8092 423 43.5C423 41.1908 424.406 39.2265 426.412 38.4082ZM430.588 38.4082C432.594 39.2265 434 41.1908 434 43.5C434 45.8092 432.594 47.7735 430.588 48.5918C430.636 48.4836 430.69 48.3906 430.734 48.2754C431.217 47.0196 431.5 45.3469 431.5 43.5C431.5 41.6531 431.217 39.9785 430.734 38.7227C430.69 38.608 430.635 38.5158 430.588 38.4082Z" fill="#2E3436"/>
<path d="M409.506 68H412.41C414.33 68 415.458 67.1 415.458 65.576C415.458 64.532 414.87 63.74 413.91 63.416C414.474 63.092 414.834 62.408 414.834 61.676C414.834 60.404 413.814 59.672 412.038 59.672H409.506V68ZM410.502 64.076H412.698C413.754 64.076 414.438 64.748 414.438 65.78C414.438 66.74 413.862 67.148 412.53 67.148H410.502V64.076ZM412.89 63.248C412.866 63.248 412.83 63.248 412.806 63.248H410.502V60.524H411.918C413.19 60.524 413.814 60.992 413.814 61.94C413.814 62.528 413.55 62.912 412.89 63.248ZM416.957 68H417.917V63.872C418.289 63.368 418.877 63.068 419.525 63.068C419.753 63.068 419.969 63.104 420.161 63.176L420.401 62.288C420.149 62.204 419.897 62.156 419.633 62.156C418.937 62.156 418.289 62.492 417.857 63.056L417.749 62.216H416.957V68ZM423.808 68.12C425.512 68.12 426.664 66.884 426.664 65.036C426.664 63.248 425.596 62.096 423.952 62.096C422.248 62.096 421.108 63.32 421.108 65.168C421.108 66.956 422.164 68.12 423.808 68.12ZM423.94 67.28C422.824 67.28 422.068 66.38 422.068 65.048C422.068 63.764 422.752 62.936 423.82 62.936C424.936 62.936 425.704 63.848 425.704 65.168C425.704 66.44 425.008 67.28 423.94 67.28ZM429.453 68H430.401L431.973 63.344L433.641 68H434.613L436.521 62.216H435.561L434.133 66.908L432.561 62.24H431.505L429.957 66.98L428.553 62.216H427.461L429.453 68ZM439.439 68.12C440.867 68.12 441.743 67.448 441.743 66.38C441.743 64.256 438.287 65.048 438.287 63.74C438.287 63.236 438.827 62.912 439.691 62.912C440.183 62.912 440.759 63.02 441.251 63.188L441.479 62.408C440.987 62.204 440.399 62.096 439.787 62.096C438.287 62.096 437.327 62.756 437.327 63.848C437.327 65.924 440.771 65.06 440.771 66.476C440.771 67.004 440.303 67.304 439.511 67.304C438.899 67.304 438.083 67.136 437.471 66.872L437.243 67.652C437.903 67.952 438.707 68.12 439.439 68.12ZM445.858 68.12C446.518 68.12 447.238 67.964 447.754 67.688L447.538 66.992C447.094 67.208 446.53 67.34 446.026 67.34C444.802 67.34 444.034 66.608 443.89 65.372H447.922C447.946 65.192 447.97 64.772 447.97 64.544C447.97 63.092 447.01 62.096 445.582 62.096C443.974 62.096 442.882 63.356 442.882 65.132C442.882 66.98 444.022 68.12 445.858 68.12ZM443.878 64.652C443.962 63.524 444.538 62.912 445.51 62.912C446.494 62.912 447.07 63.548 447.07 64.652H443.878Z" fill="#2E3436"/>
<g filter="url(#filter4_di)">
<rect x="550" y="37" width="34" height="32" rx="4" fill="url(#paint2_linear)"/>
<rect x="549.5" y="36.5" width="35" height="33" rx="4.5" stroke="url(#paint3_linear)"/>
</g>
<g filter="url(#filter5_d)">
<path d="M562 48H572.625V50H562V48ZM562 52H572.625V54H562V52ZM562 56H572.625V58H562V56Z" fill="#3E4446"/>
</g>
<g filter="url(#filter6_di)">
<rect x="508" y="37" width="34" height="32" rx="4" fill="url(#paint4_linear)"/>
<rect x="507.5" y="36.5" width="35" height="33" rx="4.5" stroke="url(#paint5_linear)"/>
</g>
<g filter="url(#filter7_d)">
<path d="M528 49C527.47 49 526.961 49.2107 526.586 49.5858C526.211 49.9609 526 50.4696 526 51C526 51.5304 526.211 52.0391 526.586 52.4142C526.961 52.7893 527.47 53 528 53C528.53 53 529.039 52.7893 529.414 52.4142C529.789 52.0391 530 51.5304 530 51C530 50.4696 529.789 49.9609 529.414 49.5858C529.039 49.2107 528.53 49 528 49ZM527 54C525.338 54 524 55.338 524 57V58C524 58.554 524.446 59 525 59H531C531.554 59 532 58.554 532 58V57C532 55.338 530.662 54 529 54H527Z" fill="#3E4446"/>
<path d="M522 47C521.47 47 520.961 47.2107 520.586 47.5858C520.211 47.9609 520 48.4696 520 49C520 49.5304 520.211 50.0391 520.586 50.4142C520.961 50.7893 521.47 51 522 51C522.53 51 523.039 50.7893 523.414 50.4142C523.789 50.0391 524 49.5304 524 49C524 48.4696 523.789 47.9609 523.414 47.5858C523.039 47.2107 522.53 47 522 47ZM521 52C519.338 52 518 53.338 518 55V56C518 56.554 518.446 57 519 57H523C523 55.335 524.056 53.962 525.517 53.375C525.247 52.953 524.874 52.6058 524.434 52.3655C523.995 52.1252 523.501 51.9995 523 52H521ZM526 55.268C525.4 55.608 525 56.244 525 57C525.554 57 526 56.554 526 56V55.75V55.268Z" fill="#3E4446"/>
</g>
<g filter="url(#filter8_d)">
<path d="M609.004 49.001H610.035C610.29 49.012 610.545 49.13 610.723 49.314L613.004 51.593L615.316 49.313C615.582 49.082 615.763 49.007 616.004 49H617.004V50C617.004 50.286 616.97 50.55 616.754 50.75L614.473 53.032L616.723 55.282C616.911 55.47 617.004 55.736 617.004 56.001V57.001H616.004C615.739 57.001 615.474 56.908 615.285 56.72L613.004 54.439L610.723 56.719C610.53 56.9041 610.272 57.0054 610.004 57.001H609.004V56.001C609.004 55.736 609.097 55.471 609.285 55.282L611.566 53.032L609.286 50.751C609.185 50.6558 609.107 50.5388 609.058 50.4087C609.009 50.2787 608.991 50.1392 609.004 50.001V49.001Z" fill="#2E3436"/>
</g>
<g filter="url(#filter9_di)">
<rect x="41" y="36" width="34" height="32" rx="4" fill="url(#paint6_linear)"/>
<rect x="40.5" y="35.5" width="35" height="33" rx="4.5" stroke="url(#paint7_linear)"/>
</g>
<g filter="url(#filter10_d)">
<path d="M59.0062 56V48.437L60.2872 49.72C60.4806 49.9043 60.739 50.005 61.0062 50H62.0062V49C62.0062 48.735 61.9132 48.47 61.7252 48.281L58.7252 45.281L58.4432 45H57.5682L57.2882 45.281L54.2882 48.281C54.1026 48.4738 54.0012 48.7324 54.0062 49V50H55.0062C55.2712 50 55.5362 49.907 55.7252 49.719L57.0062 48.437V56H59.0062Z" fill="#474747"/>
<path fill-rule="evenodd" clip-rule="evenodd" d="M52 57L52.006 59H64.006L64 57H52Z" fill="#474747"/>
</g>
<path d="M62.5 108C62.5 104.41 65.4101 101.5 69 101.5H602C605.59 101.5 608.5 104.41 608.5 108V252C608.5 255.59 605.59 258.5 602 258.5H69C65.4101 258.5 62.5 255.59 62.5 252V108Z" fill="white" stroke="#DCD8D4"/>
<path d="M335 231V235H331V237H335V241H337V237H341V235H337V231H335Z" fill="#474747"/>
<line x1="63" y1="211.5" x2="608.001" y2="211.5" stroke="#DFDFDF"/>
<path d="M547 146V112" stroke="#DFDFDF"/>
<g filter="url(#filter11_di)">
<rect x="563" y="113" width="34" height="32" rx="4" fill="url(#paint8_linear)"/>
<rect x="562.5" y="112.5" width="35" height="33" rx="4.5" stroke="url(#paint9_linear)"/>
</g>
<g filter="url(#filter12_d)">
<path d="M579.502 122.019C579.371 122.019 579.241 122.044 579.12 122.094C578.999 122.144 578.888 122.218 578.796 122.311C578.703 122.403 578.629 122.514 578.579 122.635C578.529 122.756 578.504 122.886 578.504 123.017V123.468C578.03 123.598 577.574 123.788 577.148 124.034L576.826 123.712C576.734 123.619 576.624 123.546 576.503 123.495C576.382 123.445 576.252 123.419 576.121 123.419C575.99 123.419 575.86 123.445 575.739 123.495C575.618 123.546 575.508 123.619 575.416 123.712L574.711 124.417C574.618 124.509 574.545 124.619 574.494 124.74C574.444 124.861 574.418 124.991 574.418 125.122C574.418 125.253 574.444 125.383 574.494 125.504C574.545 125.625 574.618 125.735 574.711 125.827L575.031 126.147C574.787 126.574 574.599 127.03 574.471 127.505H574.017C573.886 127.505 573.756 127.53 573.635 127.58C573.514 127.63 573.404 127.703 573.311 127.796C573.218 127.888 573.145 127.998 573.095 128.119C573.045 128.24 573.019 128.37 573.019 128.501V129.5C573.019 130.053 573.465 130.496 574.017 130.496H574.467C574.597 130.97 574.787 131.426 575.033 131.852L574.711 132.174C574.618 132.266 574.545 132.376 574.494 132.497C574.444 132.618 574.418 132.748 574.418 132.879C574.418 133.01 574.444 133.14 574.494 133.261C574.545 133.382 574.618 133.492 574.711 133.584L575.416 134.289C575.806 134.68 576.436 134.68 576.826 134.289L577.146 133.969C577.573 134.213 578.029 134.401 578.504 134.529V134.985C578.504 135.537 578.949 135.981 579.502 135.981H580.498C580.629 135.981 580.759 135.956 580.88 135.906C581.001 135.856 581.111 135.783 581.204 135.69C581.297 135.598 581.37 135.488 581.42 135.367C581.47 135.246 581.496 135.116 581.496 134.985V134.534C581.97 134.404 582.426 134.213 582.851 133.967L583.174 134.289C583.564 134.68 584.194 134.68 584.584 134.289L585.289 133.584C585.382 133.492 585.455 133.382 585.506 133.261C585.556 133.14 585.582 133.01 585.582 132.879C585.582 132.748 585.556 132.618 585.506 132.497C585.455 132.376 585.382 132.266 585.289 132.174L584.969 131.854C585.213 131.427 585.401 130.971 585.529 130.496H585.982C586.113 130.496 586.243 130.471 586.364 130.421C586.485 130.371 586.595 130.298 586.688 130.205C586.781 130.113 586.854 130.003 586.904 129.882C586.954 129.761 586.98 129.631 586.98 129.5V128.502C586.98 128.371 586.954 128.241 586.904 128.12C586.854 127.999 586.781 127.889 586.688 127.797C586.595 127.704 586.485 127.631 586.364 127.581C586.243 127.531 586.113 127.506 585.982 127.506H585.533C585.403 127.032 585.213 126.577 584.967 126.151L585.289 125.828C585.382 125.736 585.455 125.626 585.506 125.505C585.556 125.384 585.582 125.254 585.582 125.123C585.582 124.992 585.556 124.862 585.506 124.741C585.455 124.62 585.382 124.51 585.289 124.418L584.584 123.713C584.492 123.62 584.382 123.547 584.261 123.496C584.14 123.446 584.01 123.42 583.879 123.42C583.748 123.42 583.618 123.446 583.497 123.496C583.376 123.547 583.266 123.62 583.174 123.713L582.854 124.033C582.427 123.789 581.971 123.601 581.496 123.473V123.018C581.496 122.887 581.471 122.757 581.421 122.636C581.371 122.515 581.297 122.404 581.204 122.312C581.112 122.219 581.001 122.145 580.88 122.095C580.759 122.045 580.629 122.02 580.498 122.02L579.502 122.019ZM580.017 125.995C580.813 125.995 581.576 126.311 582.138 126.874C582.701 127.436 583.017 128.199 583.017 128.995C583.017 129.791 582.701 130.554 582.138 131.116C581.576 131.679 580.813 131.995 580.017 131.995C579.221 131.995 578.458 131.679 577.896 131.116C577.333 130.554 577.017 129.791 577.017 128.995C577.017 128.199 577.333 127.436 577.896 126.874C578.458 126.311 579.221 125.995 580.017 125.995Z" fill="#3E4446"/>
</g>
<path d="M83.98 135.12C85.612 135.12 86.536 134.112 86.536 132.336V126.672H84.988V132.456C84.988 133.296 84.592 133.752 83.872 133.752C83.524 133.752 83.068 133.656 82.744 133.5L82.3 134.7C82.804 134.988 83.38 135.12 83.98 135.12ZM91.897 135H93.001V131.496C93.001 129.912 92.101 129.048 90.373 129.048C89.545 129.048 88.645 129.252 87.961 129.612L88.321 130.68C88.933 130.44 89.509 130.32 90.049 130.32C90.985 130.32 91.489 130.68 91.489 131.376V131.532C88.969 131.568 87.853 132.144 87.853 133.38C87.853 134.436 88.633 135.12 89.869 135.12C90.613 135.12 91.237 134.88 91.681 134.424L91.897 135ZM91.489 133.5C91.201 133.764 90.817 133.92 90.373 133.92C89.785 133.92 89.389 133.62 89.389 133.176C89.389 132.648 89.989 132.408 91.489 132.384V133.5ZM97.54 135.12C99.112 135.12 100.24 133.824 100.24 131.988C100.24 130.248 99.196 129.048 97.696 129.048C96.988 129.048 96.364 129.324 95.92 129.816L95.644 129.168H94.612V137.604H96.1V134.616C96.472 134.94 96.976 135.12 97.54 135.12ZM96.1 133.164V130.836C96.4 130.524 96.808 130.344 97.264 130.344C98.14 130.344 98.692 131.016 98.692 132.108C98.692 133.164 98.188 133.824 97.336 133.824C96.82 133.824 96.364 133.572 96.1 133.164ZM105.268 135H106.372V131.496C106.372 129.912 105.472 129.048 103.744 129.048C102.916 129.048 102.016 129.252 101.332 129.612L101.692 130.68C102.304 130.44 102.88 130.32 103.42 130.32C104.356 130.32 104.86 130.68 104.86 131.376V131.532C102.34 131.568 101.224 132.144 101.224 133.38C101.224 134.436 102.004 135.12 103.24 135.12C103.984 135.12 104.608 134.88 105.052 134.424L105.268 135ZM104.86 133.5C104.572 133.764 104.188 133.92 103.744 133.92C103.156 133.92 102.76 133.62 102.76 133.176C102.76 132.648 103.36 132.408 104.86 132.384V133.5ZM111.835 135H113.359V131.4C113.359 129.96 112.543 129.072 111.235 129.072C110.527 129.072 109.867 129.324 109.351 129.804L109.087 129.168H107.983V135H109.519V130.824C109.867 130.548 110.263 130.404 110.707 130.404C111.451 130.404 111.835 130.824 111.835 131.616V135ZM117.835 135.12C118.519 135.12 119.263 134.976 119.899 134.712L119.551 133.656C119.083 133.848 118.567 133.956 118.075 133.956C117.031 133.956 116.383 133.464 116.203 132.504H119.983C120.019 132.264 120.055 131.904 120.055 131.64C120.055 130.044 119.083 129.048 117.523 129.048C115.783 129.048 114.619 130.284 114.619 132.096C114.619 133.968 115.843 135.12 117.835 135.12ZM116.167 131.568C116.251 130.692 116.683 130.224 117.415 130.224C118.171 130.224 118.615 130.716 118.615 131.568H116.167ZM123.345 135.12C124.941 135.12 125.889 134.412 125.889 133.248C125.889 131.064 122.589 131.796 122.589 130.812C122.589 130.464 123.009 130.248 123.717 130.248C124.197 130.248 124.773 130.344 125.313 130.5L125.637 129.348C125.097 129.156 124.413 129.048 123.753 129.048C122.085 129.048 121.113 129.72 121.113 130.92C121.113 133.092 124.365 132.264 124.365 133.32C124.365 133.692 123.969 133.92 123.321 133.92C122.757 133.92 121.977 133.764 121.365 133.524L121.029 134.664C121.689 134.952 122.541 135.12 123.345 135.12ZM130.023 135.12C130.707 135.12 131.451 134.976 132.087 134.712L131.739 133.656C131.271 133.848 130.755 133.956 130.263 133.956C129.219 133.956 128.571 133.464 128.391 132.504H132.171C132.207 132.264 132.243 131.904 132.243 131.64C132.243 130.044 131.271 129.048 129.711 129.048C127.971 129.048 126.807 130.284 126.807 132.096C126.807 133.968 128.031 135.12 130.023 135.12ZM128.355 131.568C128.439 130.692 128.871 130.224 129.603 130.224C130.359 130.224 130.803 130.716 130.803 131.568H128.355Z" fill="black"/>
<path d="M485.948 133H486.884V126.004L491.636 133H492.74V124.672H491.804V131.668L487.088 124.672H485.948V133ZM497.444 133.12C498.104 133.12 498.824 132.964 499.34 132.688L499.124 131.992C498.68 132.208 498.116 132.34 497.612 132.34C496.388 132.34 495.62 131.608 495.476 130.372H499.508C499.532 130.192 499.556 129.772 499.556 129.544C499.556 128.092 498.596 127.096 497.168 127.096C495.56 127.096 494.468 128.356 494.468 130.132C494.468 131.98 495.608 133.12 497.444 133.12ZM495.464 129.652C495.548 128.524 496.124 127.912 497.096 127.912C498.08 127.912 498.656 128.548 498.656 129.652H495.464ZM502.344 133H503.292L504.864 128.344L506.532 133H507.504L509.412 127.216H508.452L507.024 131.908L505.452 127.24H504.396L502.848 131.98L501.444 127.216H500.352L502.344 133ZM511.118 133.12C511.574 133.12 511.886 132.796 511.886 132.352C511.886 131.908 511.574 131.584 511.118 131.584C510.662 131.584 510.35 131.908 510.35 132.352C510.35 132.796 510.662 133.12 511.118 133.12ZM511.118 128.752C511.574 128.752 511.886 128.428 511.886 127.984C511.886 127.54 511.574 127.216 511.118 127.216C510.662 127.216 510.35 127.54 510.35 127.984C510.35 128.428 510.662 128.752 511.118 128.752ZM515.841 133H521.121V132.136H517.293C519.909 129.652 520.797 128.308 520.797 126.904C520.797 125.44 519.801 124.552 518.265 124.552C517.269 124.552 516.321 124.912 515.709 125.5L515.985 126.196C516.621 125.68 517.413 125.428 518.061 125.428C519.129 125.428 519.789 126.064 519.789 127.06C519.789 128.272 518.817 129.532 515.841 132.34V133ZM525.289 133.12C527.149 133.12 528.301 131.488 528.301 128.776C528.301 126.16 527.185 124.552 525.373 124.552C523.489 124.552 522.325 126.196 522.325 128.896C522.325 131.524 523.453 133.12 525.289 133.12ZM525.361 132.268C524.113 132.268 523.333 130.96 523.333 128.776C523.333 126.676 524.089 125.404 525.301 125.404C526.525 125.404 527.293 126.724 527.293 128.896C527.293 130.996 526.561 132.268 525.361 132.268Z" fill="#3584E4"/>
<path d="M547 201V167" stroke="#DFDFDF"/>
<g filter="url(#filter13_di)">
<rect x="563" y="168" width="34" height="32" rx="4" fill="url(#paint10_linear)"/>
<rect x="562.5" y="167.5" width="35" height="33" rx="4.5" stroke="url(#paint11_linear)"/>
</g>
<g filter="url(#filter14_d)">
<path d="M579.502 177.019C579.371 177.019 579.241 177.044 579.12 177.094C578.999 177.144 578.888 177.218 578.796 177.311C578.703 177.403 578.629 177.514 578.579 177.635C578.529 177.756 578.504 177.886 578.504 178.017V178.468C578.03 178.598 577.574 178.788 577.148 179.034L576.826 178.712C576.734 178.619 576.624 178.546 576.503 178.495C576.382 178.445 576.252 178.419 576.121 178.419C575.99 178.419 575.86 178.445 575.739 178.495C575.618 178.546 575.508 178.619 575.416 178.712L574.711 179.417C574.618 179.509 574.545 179.619 574.494 179.74C574.444 179.861 574.418 179.991 574.418 180.122C574.418 180.253 574.444 180.383 574.494 180.504C574.545 180.625 574.618 180.735 574.711 180.827L575.031 181.147C574.787 181.574 574.599 182.03 574.471 182.505H574.017C573.886 182.505 573.756 182.53 573.635 182.58C573.514 182.63 573.404 182.703 573.311 182.796C573.218 182.888 573.145 182.998 573.095 183.119C573.045 183.24 573.019 183.37 573.019 183.501V184.5C573.019 185.053 573.465 185.496 574.017 185.496H574.467C574.597 185.97 574.787 186.426 575.033 186.852L574.711 187.174C574.618 187.266 574.545 187.376 574.494 187.497C574.444 187.618 574.418 187.748 574.418 187.879C574.418 188.01 574.444 188.14 574.494 188.261C574.545 188.382 574.618 188.492 574.711 188.584L575.416 189.289C575.806 189.68 576.436 189.68 576.826 189.289L577.146 188.969C577.573 189.213 578.029 189.401 578.504 189.529V189.985C578.504 190.537 578.949 190.981 579.502 190.981H580.498C580.629 190.981 580.759 190.956 580.88 190.906C581.001 190.856 581.111 190.783 581.204 190.69C581.297 190.598 581.37 190.488 581.42 190.367C581.47 190.246 581.496 190.116 581.496 189.985V189.534C581.97 189.404 582.426 189.213 582.851 188.967L583.174 189.289C583.564 189.68 584.194 189.68 584.584 189.289L585.289 188.584C585.382 188.492 585.455 188.382 585.506 188.261C585.556 188.14 585.582 188.01 585.582 187.879C585.582 187.748 585.556 187.618 585.506 187.497C585.455 187.376 585.382 187.266 585.289 187.174L584.969 186.854C585.213 186.427 585.401 185.971 585.529 185.496H585.982C586.113 185.496 586.243 185.471 586.364 185.421C586.485 185.371 586.595 185.298 586.688 185.205C586.781 185.113 586.854 185.003 586.904 184.882C586.954 184.761 586.98 184.631 586.98 184.5V183.502C586.98 183.371 586.954 183.241 586.904 183.12C586.854 182.999 586.781 182.889 586.688 182.797C586.595 182.704 586.485 182.631 586.364 182.581C586.243 182.531 586.113 182.506 585.982 182.506H585.533C585.403 182.032 585.213 181.577 584.967 181.151L585.289 180.828C585.382 180.736 585.455 180.626 585.506 180.505C585.556 180.384 585.582 180.254 585.582 180.123C585.582 179.992 585.556 179.862 585.506 179.741C585.455 179.62 585.382 179.51 585.289 179.418L584.584 178.713C584.492 178.62 584.382 178.547 584.261 178.496C584.14 178.446 584.01 178.42 583.879 178.42C583.748 178.42 583.618 178.446 583.497 178.496C583.376 178.547 583.266 178.62 583.174 178.713L582.854 179.033C582.427 178.789 581.971 178.601 581.496 178.473V178.018C581.496 177.887 581.471 177.757 581.421 177.636C581.371 177.515 581.297 177.404 581.204 177.312C581.112 177.219 581.001 177.145 580.88 177.095C580.759 177.045 580.629 177.02 580.498 177.02L579.502 177.019ZM580.017 180.995C580.813 180.995 581.576 181.311 582.138 181.874C582.701 182.436 583.017 183.199 583.017 183.995C583.017 184.791 582.701 185.554 582.138 186.116C581.576 186.679 580.813 186.995 580.017 186.995C579.221 186.995 578.458 186.679 577.896 186.116C577.333 185.554 577.017 184.791 577.017 183.995C577.017 183.199 577.333 182.436 577.896 181.874C578.458 181.311 579.221 180.995 580.017 180.995Z" fill="#3E4446"/>
</g>
<path d="M81.972 190H83.544V186.532H87.144V185.176H83.544V183.028H87.54V181.672H81.972V190ZM88.8132 190H90.3492V184.168H88.8132V190ZM89.5932 183.088C90.1572 183.088 90.5292 182.728 90.5292 182.152C90.5292 181.576 90.1572 181.204 89.5932 181.204C89.0172 181.204 88.6452 181.576 88.6452 182.152C88.6452 182.728 89.0172 183.088 89.5932 183.088ZM95.9348 190H97.4588V186.4C97.4588 184.96 96.6428 184.072 95.3348 184.072C94.6268 184.072 93.9668 184.324 93.4508 184.804L93.1868 184.168H92.0828V190H93.6188V185.824C93.9668 185.548 94.3628 185.404 94.8068 185.404C95.5508 185.404 95.9348 185.824 95.9348 186.616V190ZM102.931 190H104.455V186.4C104.455 184.96 103.639 184.072 102.331 184.072C101.623 184.072 100.963 184.324 100.447 184.804L100.183 184.168H99.0788V190H100.615V185.824C100.963 185.548 101.359 185.404 101.803 185.404C102.547 185.404 102.931 185.824 102.931 186.616V190ZM106.075 190H107.611V184.168H106.075V190ZM106.855 183.088C107.419 183.088 107.791 182.728 107.791 182.152C107.791 181.576 107.419 181.204 106.855 181.204C106.279 181.204 105.907 181.576 105.907 182.152C105.907 182.728 106.279 183.088 106.855 183.088ZM111.264 190.12C112.86 190.12 113.808 189.412 113.808 188.248C113.808 186.064 110.508 186.796 110.508 185.812C110.508 185.464 110.928 185.248 111.636 185.248C112.116 185.248 112.692 185.344 113.232 185.5L113.556 184.348C113.016 184.156 112.332 184.048 111.672 184.048C110.004 184.048 109.032 184.72 109.032 185.92C109.032 188.092 112.284 187.264 112.284 188.32C112.284 188.692 111.888 188.92 111.24 188.92C110.676 188.92 109.896 188.764 109.284 188.524L108.948 189.664C109.608 189.952 110.46 190.12 111.264 190.12ZM118.915 190H120.451V186.34C120.451 184.936 119.623 184.072 118.303 184.072C117.679 184.072 117.079 184.276 116.599 184.696V181.132H115.087V190H116.599V185.872C116.935 185.548 117.343 185.404 117.775 185.404C118.531 185.404 118.915 185.824 118.915 186.616V190Z" fill="black"/>
<path d="M488.01 188H488.946V181.004L493.698 188H494.802V179.672H493.866V186.668L489.15 179.672H488.01V188ZM499.506 188.12C500.166 188.12 500.886 187.964 501.402 187.688L501.186 186.992C500.742 187.208 500.178 187.34 499.674 187.34C498.45 187.34 497.682 186.608 497.538 185.372H501.57C501.594 185.192 501.618 184.772 501.618 184.544C501.618 183.092 500.658 182.096 499.23 182.096C497.622 182.096 496.53 183.356 496.53 185.132C496.53 186.98 497.67 188.12 499.506 188.12ZM497.526 184.652C497.61 183.524 498.186 182.912 499.158 182.912C500.142 182.912 500.718 183.548 500.718 184.652H497.526ZM504.406 188H505.354L506.926 183.344L508.594 188H509.566L511.474 182.216H510.514L509.086 186.908L507.514 182.24H506.458L504.91 186.98L503.506 182.216H502.414L504.406 188ZM513.181 188.12C513.637 188.12 513.949 187.796 513.949 187.352C513.949 186.908 513.637 186.584 513.181 186.584C512.725 186.584 512.413 186.908 512.413 187.352C512.413 187.796 512.725 188.12 513.181 188.12ZM513.181 183.752C513.637 183.752 513.949 183.428 513.949 182.984C513.949 182.54 513.637 182.216 513.181 182.216C512.725 182.216 512.413 182.54 512.413 182.984C512.413 183.428 512.725 183.752 513.181 183.752ZM520.028 188.06H520.976V179.672H520.4L517.436 181.208L517.796 181.892L520.028 180.824V188.06ZM525.354 188.12C527.202 188.12 528.45 187.064 528.45 185.432C528.45 183.872 527.322 182.888 525.45 182.888C525.09 182.888 524.718 182.924 524.37 182.996L524.49 180.524H528.054V179.672H523.59L523.386 183.932C523.926 183.812 524.622 183.728 525.15 183.728C526.566 183.728 527.43 184.388 527.43 185.516C527.43 186.596 526.638 187.244 525.414 187.244C524.694 187.244 523.902 187.04 523.278 186.704L522.99 187.496C523.734 187.892 524.514 188.12 525.354 188.12Z" fill="#3584E4"/>
<path d="M444.26 188H446.804C449.324 188 451.04 186.356 451.04 183.68C451.04 181.16 449.528 179.672 446.984 179.672H444.26V188ZM445.256 187.136V180.536H446.864C448.892 180.536 450.02 181.724 450.02 183.836C450.02 185.936 448.904 187.136 446.924 187.136H445.256ZM454.676 188.12C455.312 188.12 455.96 187.892 456.5 187.496L456.716 188H457.388V182.216H456.428V186.752C456.008 187.088 455.48 187.28 454.964 187.28C454.064 187.28 453.548 186.752 453.548 185.816V182.216H452.588V186.008C452.588 187.292 453.44 188.12 454.676 188.12ZM461.979 188.12C462.639 188.12 463.359 187.964 463.875 187.688L463.659 186.992C463.215 187.208 462.651 187.34 462.147 187.34C460.923 187.34 460.155 186.608 460.011 185.372H464.043C464.067 185.192 464.091 184.772 464.091 184.544C464.091 183.092 463.131 182.096 461.703 182.096C460.095 182.096 459.003 183.356 459.003 185.132C459.003 186.98 460.143 188.12 461.979 188.12ZM459.999 184.652C460.083 183.524 460.659 182.912 461.631 182.912C462.615 182.912 463.191 183.548 463.191 184.652H459.999ZM466.255 188.12C466.711 188.12 467.023 187.796 467.023 187.352C467.023 186.908 466.711 186.584 466.255 186.584C465.799 186.584 465.487 186.908 465.487 187.352C465.487 187.796 465.799 188.12 466.255 188.12ZM466.255 183.752C466.711 183.752 467.023 183.428 467.023 182.984C467.023 182.54 466.711 182.216 466.255 182.216C465.799 182.216 465.487 182.54 465.487 182.984C465.487 183.428 465.799 183.752 466.255 183.752ZM473.354 188.12C475.202 188.12 476.45 187.064 476.45 185.432C476.45 183.872 475.322 182.888 473.45 182.888C473.09 182.888 472.718 182.924 472.37 182.996L472.49 180.524H476.054V179.672H471.59L471.386 183.932C471.926 183.812 472.622 183.728 473.15 183.728C474.566 183.728 475.43 184.388 475.43 185.516C475.43 186.596 474.638 187.244 473.414 187.244C472.694 187.244 471.902 187.04 471.278 186.704L470.99 187.496C471.734 187.892 472.514 188.12 473.354 188.12Z" fill="#7E8685"/>
<line x1="63" y1="156.5" x2="608.001" y2="156.5" stroke="#DFDFDF"/>
<defs>
<filter id="filter0_d" x="0" y="0" width="666" height="526" filterUnits="userSpaceOnUse" color-interpolation-filters="sRGB">
<feFlood flood-opacity="0" result="BackgroundImageFix"/>
<feColorMatrix in="SourceAlpha" type="matrix" values="0 0 0 0 0 0 0 0 0 0 0 0 0 0 0 0 0 0 127 0"/>
<feMorphology radius="1" operator="erode" in="SourceAlpha" result="effect1_dropShadow"/>
<feOffset dy="4"/>
<feGaussianBlur stdDeviation="16.5"/>
<feColorMatrix type="matrix" values="0 0 0 0 0 0 0 0 0 0 0 0 0 0 0 0 0 0 0.25 0"/>
<feBlend mode="normal" in2="BackgroundImageFix" result="effect1_dropShadow"/>
<feBlend mode="normal" in="SourceGraphic" in2="effect1_dropShadow" result="shape"/>
</filter>
<filter id="filter1_i" x="33" y="29" width="600" height="47" filterUnits="userSpaceOnUse" color-interpolation-filters="sRGB">
<feFlood flood-opacity="0" result="BackgroundImageFix"/>
<feBlend mode="normal" in="SourceGraphic" in2="BackgroundImageFix" result="shape"/>
<feColorMatrix in="SourceAlpha" type="matrix" values="0 0 0 0 0 0 0 0 0 0 0 0 0 0 0 0 0 0 127 0" result="hardAlpha"/>
<feOffset dy="1"/>
<feComposite in2="hardAlpha" operator="arithmetic" k2="-1" k3="1"/>
<feColorMatrix type="matrix" values="0 0 0 0 0.976471 0 0 0 0 0.972549 0 0 0 0 0.972549 0 0 0 1 0"/>
<feBlend mode="normal" in2="shape" result="effect1_innerShadow"/>
</filter>
<filter id="filter2_i" x="33" y="29" width="600" height="47" filterUnits="userSpaceOnUse" color-interpolation-filters="sRGB">
<feFlood flood-opacity="0" result="BackgroundImageFix"/>
<feBlend mode="normal" in="SourceGraphic" in2="BackgroundImageFix" result="shape"/>
<feColorMatrix in="SourceAlpha" type="matrix" values="0 0 0 0 0 0 0 0 0 0 0 0 0 0 0 0 0 0 127 0" result="hardAlpha"/>
<feOffset dy="1"/>
<feComposite in2="hardAlpha" operator="arithmetic" k2="-1" k3="1"/>
<feColorMatrix type="matrix" values="0 0 0 0 0.976471 0 0 0 0 0.972549 0 0 0 0 0.972549 0 0 0 1 0"/>
<feBlend mode="normal" in2="shape" result="effect1_innerShadow"/>
</filter>
<filter id="filter3_i" x="189" y="29" width="96" height="46" filterUnits="userSpaceOnUse" color-interpolation-filters="sRGB">
<feFlood flood-opacity="0" result="BackgroundImageFix"/>
<feBlend mode="normal" in="SourceGraphic" in2="BackgroundImageFix" result="shape"/>
<feColorMatrix in="SourceAlpha" type="matrix" values="0 0 0 0 0 0 0 0 0 0 0 0 0 0 0 0 0 0 127 0" result="hardAlpha"/>
<feOffset dy="1"/>
<feComposite in2="hardAlpha" operator="arithmetic" k2="-1" k3="1"/>
<feColorMatrix type="matrix" values="0 0 0 0 0.894118 0 0 0 0 0.882353 0 0 0 0 0.870588 0 0 0 1 0"/>
<feBlend mode="normal" in2="shape" result="effect1_innerShadow"/>
</filter>
<filter id="filter4_di" x="545" y="33" width="44" height="42" filterUnits="userSpaceOnUse" color-interpolation-filters="sRGB">
<feFlood flood-opacity="0" result="BackgroundImageFix"/>
<feColorMatrix in="SourceAlpha" type="matrix" values="0 0 0 0 0 0 0 0 0 0 0 0 0 0 0 0 0 0 127 0"/>
<feOffset dy="1"/>
<feGaussianBlur stdDeviation="2"/>
<feColorMatrix type="matrix" values="0 0 0 0 0.54902 0 0 0 0 0.54902 0 0 0 0 0.54902 0 0 0 0.25 0"/>
<feBlend mode="normal" in2="BackgroundImageFix" result="effect1_dropShadow"/>
<feBlend mode="normal" in="SourceGraphic" in2="effect1_dropShadow" result="shape"/>
<feColorMatrix in="SourceAlpha" type="matrix" values="0 0 0 0 0 0 0 0 0 0 0 0 0 0 0 0 0 0 127 0" result="hardAlpha"/>
<feOffset dy="2"/>
<feComposite in2="hardAlpha" operator="arithmetic" k2="-1" k3="1"/>
<feColorMatrix type="matrix" values="0 0 0 0 1 0 0 0 0 1 0 0 0 0 1 0 0 0 1 0"/>
<feBlend mode="normal" in2="shape" result="effect2_innerShadow"/>
</filter>
<filter id="filter5_d" x="562" y="48" width="10.625" height="11" filterUnits="userSpaceOnUse" color-interpolation-filters="sRGB">
<feFlood flood-opacity="0" result="BackgroundImageFix"/>
<feColorMatrix in="SourceAlpha" type="matrix" values="0 0 0 0 0 0 0 0 0 0 0 0 0 0 0 0 0 0 127 0"/>
<feOffset dy="1"/>
<feColorMatrix type="matrix" values="0 0 0 0 1 0 0 0 0 1 0 0 0 0 1 0 0 0 1 0"/>
<feBlend mode="normal" in2="BackgroundImageFix" result="effect1_dropShadow"/>
<feBlend mode="normal" in="SourceGraphic" in2="effect1_dropShadow" result="shape"/>
</filter>
<filter id="filter6_di" x="503" y="33" width="44" height="42" filterUnits="userSpaceOnUse" color-interpolation-filters="sRGB">
<feFlood flood-opacity="0" result="BackgroundImageFix"/>
<feColorMatrix in="SourceAlpha" type="matrix" values="0 0 0 0 0 0 0 0 0 0 0 0 0 0 0 0 0 0 127 0"/>
<feOffset dy="1"/>
<feGaussianBlur stdDeviation="2"/>
<feColorMatrix type="matrix" values="0 0 0 0 0.54902 0 0 0 0 0.54902 0 0 0 0 0.54902 0 0 0 0.25 0"/>
<feBlend mode="normal" in2="BackgroundImageFix" result="effect1_dropShadow"/>
<feBlend mode="normal" in="SourceGraphic" in2="effect1_dropShadow" result="shape"/>
<feColorMatrix in="SourceAlpha" type="matrix" values="0 0 0 0 0 0 0 0 0 0 0 0 0 0 0 0 0 0 127 0" result="hardAlpha"/>
<feOffset dy="2"/>
<feComposite in2="hardAlpha" operator="arithmetic" k2="-1" k3="1"/>
<feColorMatrix type="matrix" values="0 0 0 0 1 0 0 0 0 1 0 0 0 0 1 0 0 0 1 0"/>
<feBlend mode="normal" in2="shape" result="effect2_innerShadow"/>
</filter>
<filter id="filter7_d" x="517" y="45" width="16" height="17" filterUnits="userSpaceOnUse" color-interpolation-filters="sRGB">
<feFlood flood-opacity="0" result="BackgroundImageFix"/>
<feColorMatrix in="SourceAlpha" type="matrix" values="0 0 0 0 0 0 0 0 0 0 0 0 0 0 0 0 0 0 127 0"/>
<feOffset dy="1"/>
<feColorMatrix type="matrix" values="0 0 0 0 1 0 0 0 0 1 0 0 0 0 1 0 0 0 1 0"/>
<feBlend mode="normal" in2="BackgroundImageFix" result="effect1_dropShadow"/>
<feBlend mode="normal" in="SourceGraphic" in2="effect1_dropShadow" result="shape"/>
</filter>
<filter id="filter8_d" x="609" y="49" width="8.00425" height="9.00114" filterUnits="userSpaceOnUse" color-interpolation-filters="sRGB">
<feFlood flood-opacity="0" result="BackgroundImageFix"/>
<feColorMatrix in="SourceAlpha" type="matrix" values="0 0 0 0 0 0 0 0 0 0 0 0 0 0 0 0 0 0 127 0"/>
<feOffset dy="1"/>
<feColorMatrix type="matrix" values="0 0 0 0 1 0 0 0 0 1 0 0 0 0 1 0 0 0 1 0"/>
<feBlend mode="normal" in2="BackgroundImageFix" result="effect1_dropShadow"/>
<feBlend mode="normal" in="SourceGraphic" in2="effect1_dropShadow" result="shape"/>
</filter>
<filter id="filter9_di" x="36" y="32" width="44" height="42" filterUnits="userSpaceOnUse" color-interpolation-filters="sRGB">
<feFlood flood-opacity="0" result="BackgroundImageFix"/>
<feColorMatrix in="SourceAlpha" type="matrix" values="0 0 0 0 0 0 0 0 0 0 0 0 0 0 0 0 0 0 127 0"/>
<feOffset dy="1"/>
<feGaussianBlur stdDeviation="2"/>
<feColorMatrix type="matrix" values="0 0 0 0 0.54902 0 0 0 0 0.54902 0 0 0 0 0.54902 0 0 0 0.25 0"/>
<feBlend mode="normal" in2="BackgroundImageFix" result="effect1_dropShadow"/>
<feBlend mode="normal" in="SourceGraphic" in2="effect1_dropShadow" result="shape"/>
<feColorMatrix in="SourceAlpha" type="matrix" values="0 0 0 0 0 0 0 0 0 0 0 0 0 0 0 0 0 0 127 0" result="hardAlpha"/>
<feOffset dy="2"/>
<feComposite in2="hardAlpha" operator="arithmetic" k2="-1" k3="1"/>
<feColorMatrix type="matrix" values="0 0 0 0 1 0 0 0 0 1 0 0 0 0 1 0 0 0 1 0"/>
<feBlend mode="normal" in2="shape" result="effect2_innerShadow"/>
</filter>
<filter id="filter10_d" x="52" y="45" width="12.006" height="15" filterUnits="userSpaceOnUse" color-interpolation-filters="sRGB">
<feFlood flood-opacity="0" result="BackgroundImageFix"/>
<feColorMatrix in="SourceAlpha" type="matrix" values="0 0 0 0 0 0 0 0 0 0 0 0 0 0 0 0 0 0 127 0"/>
<feOffset dy="1"/>
<feColorMatrix type="matrix" values="0 0 0 0 1 0 0 0 0 1 0 0 0 0 1 0 0 0 1 0"/>
<feBlend mode="normal" in2="BackgroundImageFix" result="effect1_dropShadow"/>
<feBlend mode="normal" in="SourceGraphic" in2="effect1_dropShadow" result="shape"/>
</filter>
<filter id="filter11_di" x="558" y="109" width="44" height="42" filterUnits="userSpaceOnUse" color-interpolation-filters="sRGB">
<feFlood flood-opacity="0" result="BackgroundImageFix"/>
<feColorMatrix in="SourceAlpha" type="matrix" values="0 0 0 0 0 0 0 0 0 0 0 0 0 0 0 0 0 0 127 0"/>
<feOffset dy="1"/>
<feGaussianBlur stdDeviation="2"/>
<feColorMatrix type="matrix" values="0 0 0 0 0.54902 0 0 0 0 0.54902 0 0 0 0 0.54902 0 0 0 0.25 0"/>
<feBlend mode="normal" in2="BackgroundImageFix" result="effect1_dropShadow"/>
<feBlend mode="normal" in="SourceGraphic" in2="effect1_dropShadow" result="shape"/>
<feColorMatrix in="SourceAlpha" type="matrix" values="0 0 0 0 0 0 0 0 0 0 0 0 0 0 0 0 0 0 127 0" result="hardAlpha"/>
<feOffset dy="2"/>
<feComposite in2="hardAlpha" operator="arithmetic" k2="-1" k3="1"/>
<feColorMatrix type="matrix" values="0 0 0 0 1 0 0 0 0 1 0 0 0 0 1 0 0 0 1 0"/>
<feBlend mode="normal" in2="shape" result="effect2_innerShadow"/>
</filter>
<filter id="filter12_d" x="572" y="121" width="16" height="17" filterUnits="userSpaceOnUse" color-interpolation-filters="sRGB">
<feFlood flood-opacity="0" result="BackgroundImageFix"/>
<feColorMatrix in="SourceAlpha" type="matrix" values="0 0 0 0 0 0 0 0 0 0 0 0 0 0 0 0 0 0 127 0"/>
<feOffset dy="1"/>
<feColorMatrix type="matrix" values="0 0 0 0 1 0 0 0 0 1 0 0 0 0 1 0 0 0 1 0"/>
<feBlend mode="normal" in2="BackgroundImageFix" result="effect1_dropShadow"/>
<feBlend mode="normal" in="SourceGraphic" in2="effect1_dropShadow" result="shape"/>
</filter>
<filter id="filter13_di" x="558" y="164" width="44" height="42" filterUnits="userSpaceOnUse" color-interpolation-filters="sRGB">
<feFlood flood-opacity="0" result="BackgroundImageFix"/>
<feColorMatrix in="SourceAlpha" type="matrix" values="0 0 0 0 0 0 0 0 0 0 0 0 0 0 0 0 0 0 127 0"/>
<feOffset dy="1"/>
<feGaussianBlur stdDeviation="2"/>
<feColorMatrix type="matrix" values="0 0 0 0 0.54902 0 0 0 0 0.54902 0 0 0 0 0.54902 0 0 0 0.25 0"/>
<feBlend mode="normal" in2="BackgroundImageFix" result="effect1_dropShadow"/>
<feBlend mode="normal" in="SourceGraphic" in2="effect1_dropShadow" result="shape"/>
<feColorMatrix in="SourceAlpha" type="matrix" values="0 0 0 0 0 0 0 0 0 0 0 0 0 0 0 0 0 0 127 0" result="hardAlpha"/>
<feOffset dy="2"/>
<feComposite in2="hardAlpha" operator="arithmetic" k2="-1" k3="1"/>
<feColorMatrix type="matrix" values="0 0 0 0 1 0 0 0 0 1 0 0 0 0 1 0 0 0 1 0"/>
<feBlend mode="normal" in2="shape" result="effect2_innerShadow"/>
</filter>
<filter id="filter14_d" x="572" y="176" width="16" height="17" filterUnits="userSpaceOnUse" color-interpolation-filters="sRGB">
<feFlood flood-opacity="0" result="BackgroundImageFix"/>
<feColorMatrix in="SourceAlpha" type="matrix" values="0 0 0 0 0 0 0 0 0 0 0 0 0 0 0 0 0 0 127 0"/>
<feOffset dy="1"/>
<feColorMatrix type="matrix" values="0 0 0 0 1 0 0 0 0 1 0 0 0 0 1 0 0 0 1 0"/>
<feBlend mode="normal" in2="BackgroundImageFix" result="effect1_dropShadow"/>
<feBlend mode="normal" in="SourceGraphic" in2="effect1_dropShadow" result="shape"/>
</filter>
<linearGradient id="paint0_linear" x1="333" y1="29" x2="333" y2="76" gradientUnits="userSpaceOnUse">
<stop stop-color="#E1DEDB"/>
<stop offset="0.976143" stop-color="#DAD6D2"/>
<stop offset="0.981161" stop-color="#BFB8B1"/>
<stop offset="1" stop-color="#BFB8B1"/>
</linearGradient>
<linearGradient id="paint1_linear" x1="333" y1="29" x2="333" y2="76" gradientUnits="userSpaceOnUse">
<stop stop-color="#E1DEDB"/>
<stop offset="0.976143" stop-color="#DAD6D2"/>
<stop offset="0.981161" stop-color="#BFB8B1"/>
<stop offset="1" stop-color="#BFB8B1"/>
</linearGradient>
<linearGradient id="paint2_linear" x1="567" y1="37" x2="567" y2="69" gradientUnits="userSpaceOnUse">
<stop stop-color="#F6F4F3"/>
<stop offset="1" stop-color="#EDEBE9"/>
</linearGradient>
<linearGradient id="paint3_linear" x1="567" y1="37" x2="567" y2="69" gradientUnits="userSpaceOnUse">
<stop stop-color="#CDC7C2"/>
<stop offset="1" stop-color="#C1BAB4"/>
</linearGradient>
<linearGradient id="paint4_linear" x1="525" y1="37" x2="525" y2="69" gradientUnits="userSpaceOnUse">
<stop stop-color="#F6F4F3"/>
<stop offset="1" stop-color="#EDEBE9"/>
</linearGradient>
<linearGradient id="paint5_linear" x1="525" y1="37" x2="525" y2="69" gradientUnits="userSpaceOnUse">
<stop stop-color="#CDC7C2"/>
<stop offset="1" stop-color="#C1BAB4"/>
</linearGradient>
<linearGradient id="paint6_linear" x1="58" y1="36" x2="58" y2="68" gradientUnits="userSpaceOnUse">
<stop stop-color="#F6F4F3"/>
<stop offset="1" stop-color="#EDEBE9"/>
</linearGradient>
<linearGradient id="paint7_linear" x1="58" y1="36" x2="58" y2="68" gradientUnits="userSpaceOnUse">
<stop stop-color="#CDC7C2"/>
<stop offset="1" stop-color="#C1BAB4"/>
</linearGradient>
<linearGradient id="paint8_linear" x1="580" y1="113" x2="580" y2="145" gradientUnits="userSpaceOnUse">
<stop stop-color="#F6F4F3"/>
<stop offset="1" stop-color="#EDEBE9"/>
</linearGradient>
<linearGradient id="paint9_linear" x1="580" y1="113" x2="580" y2="145" gradientUnits="userSpaceOnUse">
<stop stop-color="#CDC7C2"/>
<stop offset="1" stop-color="#C1BAB4"/>
</linearGradient>
<linearGradient id="paint10_linear" x1="580" y1="168" x2="580" y2="200" gradientUnits="userSpaceOnUse">
<stop stop-color="#F6F4F3"/>
<stop offset="1" stop-color="#EDEBE9"/>
</linearGradient>
<linearGradient id="paint11_linear" x1="580" y1="168" x2="580" y2="200" gradientUnits="userSpaceOnUse">
<stop stop-color="#CDC7C2"/>
<stop offset="1" stop-color="#C1BAB4"/>
</linearGradient>
</defs>
</svg>
