<?xml version="1.0" encoding="UTF-8"?>
<svg height="16px" viewBox="0 0 16 16" width="16px" xmlns="http://www.w3.org/2000/svg">
    <path d="m 4.261719 0 c -0.699219 0 -1.261719 0.5625 -1.261719 1.261719 v 13.476562 c 0 0.699219 0.5625 1.261719 1.261719 1.261719 h 2 c -0.699219 0 -1.261719 -0.5625 -1.261719 -1.261719 v -13.476562 c 0 -0.699219 0.5625 -1.261719 1.261719 -1.261719 z m 0 0" fill="#0ece20"/>
    <path d="m 7.261719 0 c -0.699219 0 -1.261719 0.5625 -1.261719 1.265625 v 13.46875 c 0 0.703125 0.5625 1.265625 1.261719 1.265625 h 7.476562 c 0.699219 0 1.261719 -0.5625 1.261719 -1.265625 v -13.46875 c 0 -0.703125 -0.5625 -1.265625 -1.261719 -1.265625 z m 3.6875 5 h 0.050781 c 1.65625 0 3 1.34375 3 3 s -1.34375 3 -3 3 s -3 -1.34375 -3 -3 c 0 -1.636719 1.3125 -2.972656 2.949219 -3 z m 0 0" fill="#c2b9eb"/>
    <path d="m 1.261719 0 c -0.699219 0 -1.261719 0.5625 -1.261719 1.261719 v 13.476562 c 0 0.699219 0.5625 1.261719 1.261719 1.261719 h 2 c -0.699219 0 -1.261719 -0.5625 -1.261719 -1.261719 v -13.476562 c 0 -0.699219 0.5625 -1.261719 1.261719 -1.261719 z m 0 0" fill="#0ece20"/>
</svg>
